<svg width="616" height="616" viewBox="0 0 616 616" fill="none" xmlns="http://www.w3.org/2000/svg">
<g clip-path="url(#clip0)">
<path d="M565.745 305.042C561.171 298.785 452.188 151.836 312.997 151.836C173.806 151.836 64.818 298.785 60.249 305.036C55.917 310.972 55.917 319.023 60.249 324.959C64.818 331.216 173.806 478.165 312.997 478.165C452.188 478.165 561.171 331.215 565.745 324.964C570.083 319.029 570.083 310.972 565.745 305.042ZM312.997 444.407C210.468 444.407 121.667 346.874 95.38 314.989C121.633 283.076 210.248 185.594 312.997 185.594C415.521 185.594 504.316 283.11 530.614 315.012C504.361 346.924 415.746 444.407 312.997 444.407Z" fill="black"/>
<path d="M312.997 213.725C257.155 213.725 211.722 259.158 211.722 315C211.722 370.842 257.155 416.275 312.997 416.275C368.839 416.275 414.272 370.842 414.272 315C414.272 259.158 368.839 213.725 312.997 213.725ZM312.997 382.516C275.767 382.516 245.481 352.229 245.481 315C245.481 277.771 275.768 247.484 312.997 247.484C350.226 247.484 380.513 277.771 380.513 315C380.513 352.229 350.227 382.516 312.997 382.516Z" fill="black"/>
</g>
<path d="M14.5 15L601 601.5" stroke="black" stroke-width="40"/>
<defs>
<clipPath id="clip0">
<rect x="57" y="59" width="511.999" height="511.999" fill="white"/>
</clipPath>
</defs>
</svg>
