<svg id="Layer_1" data-name="Layer 1" xmlns="http://www.w3.org/2000/svg" viewBox="0 0 13 14"><defs><style>.cls-1,.cls-2,.cls-5{fill:none;}.cls-2,.cls-4,.cls-5{stroke:#333;stroke-miterlimit:10;}.cls-2,.cls-4{stroke-width:0.5px;}.cls-3{fill:#333;}.cls-4{fill:#fff;}.cls-5{stroke-width:0.8px;}</style></defs><rect class="cls-1" x="-0.16" y="0.7" width="13" height="13"/><line class="cls-2" x1="8.54" y1="2" x2="8.54" y2="4.5"/><polygon class="cls-3" points="7.34 4.1 8.54 6.3 9.84 4.1 7.34 4.1"/><rect class="cls-1" x="0.35" y="0.7" width="13" height="13"/><ellipse class="cls-2" cx="4.75" cy="6.3" rx="3.5" ry="1.5"/><path class="cls-2" d="M1.25,6.3v5.6s.3,1.5,3.5,1.5c0,0,3.2,0,3.5-1.5V6.3"/><path class="cls-2" d="M1.25,8.6a6.46,6.46,0,0,0,7,0"/><path class="cls-2" d="M1.25,10.4a6.46,6.46,0,0,0,7,0"/><circle class="cls-4" cx="9.05" cy="4.1" r="3.2"/><line class="cls-5" x1="7.24" y1="4" x2="10.86" y2="4"/><rect class="cls-1" y="0.7" width="13" height="13"/></svg>