<svg width="309" height="140" viewBox="0 0 309 140" fill="none" xmlns="http://www.w3.org/2000/svg">
<g opacity="0.1">
<g clip-path="url(#clip0)">
<path d="M45.3505 112.774L47.849 115.526L45.647 117.525L50.1444 122.48L52.3464 120.481L57.3435 125.986L65.0505 118.99L65.3553 112.689L56.3605 102.779L45.3505 112.774ZM50.1952 121.429L46.6972 117.576L54.9548 110.08L58.4527 113.934L50.1952 121.429ZM64.344 118.211L62.0523 115.687L64.5769 113.395L64.344 118.211ZM64.3051 112.638L61.0021 115.636L64.0003 118.939L57.3943 124.936L52.8969 119.981L59.5029 113.984L55.0056 109.03L48.3995 115.026L46.4007 112.824L56.3097 103.83L64.3051 112.638Z" fill="black"/>
<path d="M48.6699 117.124L50.1995 118.809C50.3134 118.934 50.3847 119.039 50.4121 119.125C50.4385 119.21 50.4103 119.292 50.3239 119.371C50.2375 119.449 50.1533 119.469 50.0713 119.434C49.9878 119.399 49.8906 119.318 49.7767 119.193L49.7102 119.119L49.2737 119.516L49.3671 119.619C49.4506 119.711 49.5399 119.791 49.6329 119.858C49.7265 119.926 49.8249 119.969 49.9298 119.99C50.0346 120.01 50.1424 119.999 50.2538 119.96C50.3657 119.922 50.4841 119.846 50.6096 119.732C50.8502 119.514 50.979 119.298 50.9993 119.086C51.0191 118.872 50.9145 118.641 50.6866 118.39L49.1455 116.692L48.6699 117.124V117.124Z" fill="black"/>
<path d="M52.4574 116.391C52.3892 116.343 52.3171 116.31 52.238 116.292C52.1589 116.273 52.0712 116.268 51.975 116.277C51.8783 116.286 51.767 116.311 51.6408 116.354L51.1302 116.528C50.992 116.578 50.8845 116.592 50.8082 116.57C50.7318 116.549 50.662 116.502 50.5955 116.429C50.5635 116.394 50.5364 116.356 50.5141 116.316C50.4919 116.276 50.4797 116.234 50.4776 116.19C50.4756 116.145 50.4851 116.099 50.5064 116.052C50.5276 116.006 50.5641 115.957 50.617 115.909C50.7094 115.826 50.8035 115.796 50.8976 115.82C50.9927 115.846 51.091 115.914 51.1929 116.026L51.6487 115.613L51.5888 115.546C51.4868 115.434 51.3807 115.355 51.2714 115.307C51.1631 115.26 51.052 115.24 50.9406 115.247C50.8282 115.254 50.717 115.287 50.6069 115.345C50.4973 115.403 50.3888 115.48 50.2836 115.575C50.0568 115.781 49.9299 116.001 49.9039 116.233C49.8779 116.466 49.9704 116.698 50.1822 116.932C50.2707 117.029 50.3592 117.103 50.4509 117.156C50.5421 117.207 50.639 117.238 50.7417 117.247C50.8455 117.256 50.9538 117.247 51.0689 117.218C51.184 117.19 51.3109 117.146 51.4485 117.086C51.5512 117.04 51.6413 117.006 51.7183 116.982C51.7952 116.959 51.8637 116.947 51.9252 116.948C51.9863 116.948 52.0414 116.961 52.0902 116.987C52.1395 117.013 52.1881 117.052 52.2361 117.105C52.3255 117.203 52.3633 117.303 52.3479 117.404C52.3331 117.504 52.2891 117.587 52.2164 117.653C52.1547 117.709 52.095 117.746 52.0388 117.766C51.9821 117.785 51.9276 117.79 51.8749 117.781C51.8227 117.772 51.7717 117.749 51.7219 117.712C51.6726 117.675 51.6222 117.63 51.5723 117.575L51.5093 117.505L51.0337 117.937L51.1206 118.033C51.3185 118.251 51.5282 118.366 51.7497 118.378C51.9713 118.389 52.2164 118.273 52.485 118.029C52.7427 117.796 52.8916 117.556 52.9329 117.312C52.9748 117.067 52.8825 116.82 52.6566 116.571C52.5906 116.499 52.5246 116.438 52.4574 116.391Z" fill="black"/>
<path d="M53.7181 113.792C53.5652 113.656 53.4115 113.559 53.2568 113.502C53.1038 113.446 52.9454 113.435 52.7852 113.47C52.6251 113.506 52.4551 113.604 52.2767 113.766C52.0989 113.927 51.9843 114.087 51.9336 114.243C51.8829 114.399 51.8795 114.557 51.9202 114.716C51.9625 114.874 52.0436 115.038 52.1635 115.203C52.2844 115.369 52.4256 115.541 52.587 115.719C52.7504 115.899 52.9096 116.057 53.061 116.191C53.2134 116.326 53.3667 116.422 53.5208 116.479C53.6749 116.536 53.8307 116.545 53.9884 116.506C54.145 116.468 54.3141 116.367 54.4919 116.206C54.6703 116.044 54.7863 115.887 54.84 115.733C54.8932 115.581 54.8992 115.425 54.8574 115.266C54.8156 115.107 54.735 114.945 54.6156 114.78C54.4967 114.616 54.3545 114.443 54.1911 114.263C54.0292 114.085 53.8716 113.927 53.7181 113.792ZM54.0729 115.108C54.1661 115.226 54.2326 115.331 54.2725 115.421C54.3123 115.511 54.3248 115.592 54.3113 115.663C54.2968 115.734 54.2546 115.802 54.1841 115.866C54.1137 115.93 54.0425 115.965 53.9706 115.972C53.8986 115.979 53.8196 115.959 53.7335 115.91C53.6475 115.862 53.5501 115.786 53.4414 115.681C53.3328 115.577 53.207 115.446 53.0631 115.288C52.9192 115.129 52.8006 114.992 52.7089 114.874C52.6166 114.757 52.5501 114.653 52.5093 114.562C52.4684 114.47 52.4555 114.39 52.4694 114.319C52.4834 114.247 52.5251 114.18 52.5956 114.116C52.666 114.052 52.7378 114.016 52.8102 114.009C52.8816 114.002 52.9611 114.023 53.0482 114.072C53.1353 114.122 53.2332 114.198 53.3403 114.301C53.4474 114.405 53.5737 114.535 53.7176 114.694C53.8616 114.852 53.9796 114.99 54.0729 115.108Z" fill="black"/>
<path d="M54.7317 111.623L56.1984 113.238L56.1912 113.245L54.1499 112.151L53.6016 112.648L55.7423 115.007L56.1783 114.611L54.6792 112.96L54.6863 112.953L56.7668 114.077L57.3085 113.585L55.1677 111.227L54.7317 111.623Z" fill="black"/>
</g>
</g>
<g opacity="0.09">
<g clip-path="url(#clip1)">
<path d="M227.58 113.562L225.67 117.314L222.668 115.786L219.23 122.541L222.232 124.069L218.412 131.575L228.919 136.923L235.715 134.712L242.591 121.202L227.58 113.562ZM220.362 122.173L223.037 116.919L234.295 122.649L231.62 127.903L220.362 122.173ZM229.46 135.862L231.211 132.42L234.653 134.172L229.46 135.862ZM235.346 133.579L230.843 131.287L228.551 135.79L219.544 131.206L222.983 124.451L231.989 129.036L235.427 122.281L226.421 117.696L227.949 114.694L241.458 121.571L235.346 133.579Z" fill="black"/>
<path d="M224.308 118.827L223.139 121.124C223.052 121.295 222.969 121.413 222.89 121.476C222.81 121.539 222.712 121.542 222.594 121.482C222.476 121.422 222.421 121.341 222.425 121.24C222.429 121.137 222.475 121.002 222.563 120.831L222.613 120.731L222.018 120.428L221.947 120.568C221.883 120.694 221.833 120.821 221.8 120.946C221.766 121.073 221.76 121.194 221.78 121.313C221.801 121.432 221.855 121.542 221.941 121.645C222.027 121.748 222.155 121.843 222.326 121.93C222.654 122.097 222.934 122.146 223.167 122.083C223.401 122.018 223.604 121.814 223.779 121.472L224.957 119.157L224.308 118.827V118.827Z" fill="black"/>
<path d="M226.607 122.543C226.63 122.451 226.636 122.362 226.624 122.271C226.612 122.179 226.582 122.085 226.533 121.986C226.485 121.887 226.414 121.78 226.318 121.663L225.928 121.193C225.819 121.066 225.761 120.958 225.754 120.869C225.745 120.779 225.767 120.686 225.818 120.587C225.842 120.539 225.871 120.495 225.905 120.455C225.938 120.415 225.978 120.385 226.024 120.365C226.07 120.345 226.123 120.337 226.181 120.341C226.239 120.344 226.305 120.364 226.377 120.4C226.503 120.465 226.572 120.552 226.584 120.662C226.596 120.773 226.563 120.904 226.485 121.057L227.106 121.374L227.152 121.283C227.23 121.13 227.271 120.986 227.277 120.851C227.284 120.718 227.26 120.592 227.208 120.477C227.156 120.36 227.076 120.256 226.97 120.163C226.865 120.07 226.74 119.986 226.596 119.913C226.287 119.756 226.004 119.71 225.747 119.776C225.49 119.841 225.281 120.033 225.12 120.351C225.052 120.484 225.009 120.607 224.99 120.726C224.972 120.843 224.979 120.958 225.01 121.07C225.042 121.184 225.095 121.295 225.173 121.405C225.249 121.516 225.346 121.632 225.466 121.754C225.555 121.845 225.628 121.926 225.684 121.998C225.74 122.07 225.78 122.138 225.803 122.203C225.828 122.268 225.836 122.332 225.828 122.394C225.821 122.456 225.799 122.523 225.762 122.596C225.694 122.73 225.603 122.81 225.49 122.834C225.379 122.859 225.273 122.845 225.174 122.795C225.09 122.752 225.027 122.704 224.983 122.652C224.94 122.6 224.912 122.545 224.901 122.485C224.889 122.426 224.893 122.363 224.912 122.295C224.931 122.228 224.959 122.157 224.997 122.082L225.046 121.987L224.397 121.657L224.331 121.788C224.179 122.085 224.142 122.353 224.219 122.592C224.295 122.832 224.517 123.045 224.883 123.231C225.234 123.41 225.548 123.471 225.823 123.417C226.099 123.363 226.323 123.166 226.496 122.826C226.547 122.727 226.584 122.633 226.607 122.543Z" fill="black"/>
<path d="M229.868 122.833C229.95 122.617 229.991 122.415 229.989 122.228C229.988 122.044 229.935 121.871 229.834 121.716C229.732 121.561 229.559 121.42 229.316 121.296C229.074 121.173 228.858 121.116 228.673 121.125C228.487 121.134 228.318 121.194 228.167 121.301C228.016 121.409 227.876 121.561 227.749 121.754C227.621 121.949 227.496 122.168 227.372 122.41C227.247 122.656 227.144 122.888 227.063 123.102C226.981 123.318 226.941 123.519 226.943 123.705C226.945 123.891 226.998 124.06 227.102 124.211C227.206 124.361 227.38 124.5 227.623 124.623C227.866 124.747 228.079 124.807 228.263 124.802C228.446 124.797 228.614 124.741 228.765 124.632C228.917 124.524 229.056 124.374 229.182 124.181C229.308 123.989 229.434 123.769 229.559 123.524C229.683 123.28 229.786 123.05 229.868 122.833ZM228.617 123.738C228.529 123.885 228.445 123.997 228.366 124.076C228.286 124.154 228.206 124.199 228.125 124.214C228.044 124.227 227.955 124.21 227.859 124.161C227.763 124.112 227.697 124.051 227.66 123.977C227.624 123.904 227.614 123.812 227.631 123.702C227.647 123.591 227.689 123.457 227.756 123.3C227.822 123.143 227.91 122.957 228.02 122.741C228.13 122.525 228.228 122.344 228.316 122.2C228.403 122.055 228.486 121.943 228.567 121.863C228.647 121.783 228.727 121.737 228.808 121.723C228.89 121.709 228.978 121.726 229.074 121.775C229.17 121.824 229.237 121.885 229.273 121.959C229.309 122.032 229.319 122.125 229.302 122.237C229.284 122.349 229.243 122.483 229.177 122.638C229.11 122.793 229.023 122.979 228.913 123.195C228.803 123.412 228.704 123.592 228.617 123.738Z" fill="black"/>
<path d="M232.572 123.033L231.451 125.236L231.441 125.231L231.779 122.63L231.031 122.249L229.395 125.464L229.989 125.767L231.135 123.515L231.145 123.52L230.791 126.175L231.53 126.551L233.167 123.336L232.572 123.033Z" fill="black"/>
</g>
</g>
<g opacity="0.09">
<g clip-path="url(#clip2)">
<path d="M216.116 18.2183L213.343 21.7251L210.538 19.5069L205.547 25.8192L208.352 28.0375L202.806 35.0512L212.626 42.8152L220.161 41.9344L230.144 29.3097L216.116 18.2183ZM206.803 25.6724L210.684 20.7628L221.205 29.0814L217.323 33.991L206.803 25.6724ZM213.41 41.8235L215.953 38.607L219.169 41.1503L213.41 41.8235ZM220.014 40.6785L215.806 37.3511L212.479 41.5593L204.062 34.9044L209.053 28.5921L217.47 35.2469L222.461 28.9346L214.045 22.2797L216.263 19.4742L228.888 29.4565L220.014 40.6785Z" fill="black"/>
<path d="M211.61 23.0151L209.913 25.162C209.786 25.3219 209.676 25.4271 209.58 25.4766C209.484 25.5247 209.381 25.5074 209.271 25.4204C209.161 25.3333 209.12 25.2375 209.146 25.1333C209.171 25.0271 209.248 24.896 209.374 24.7361L209.448 24.6428L208.892 24.203L208.788 24.3342C208.696 24.4513 208.617 24.5731 208.556 24.6968C208.494 24.8211 208.462 24.9464 208.459 25.0748C208.456 25.2031 208.489 25.329 208.557 25.4535C208.625 25.5786 208.739 25.7041 208.899 25.8305C209.205 26.0729 209.486 26.1833 209.742 26.1655C209.999 26.1468 210.253 25.9771 210.506 25.6573L212.216 23.4942L211.61 23.0151V23.0151Z" fill="black"/>
<path d="M213.226 27.3634C213.269 27.2731 213.294 27.181 213.3 27.0835C213.307 26.986 213.295 26.8811 213.265 26.7687C213.236 26.6556 213.184 26.5287 213.109 26.3873L212.801 25.8159C212.715 25.6618 212.676 25.5371 212.688 25.4422C212.698 25.3475 212.74 25.2553 212.813 25.162C212.849 25.1172 212.888 25.0776 212.931 25.0432C212.974 25.0089 213.022 24.9862 213.074 24.975C213.126 24.9638 213.183 24.9661 213.243 24.982C213.302 24.998 213.367 25.0318 213.434 25.0851C213.552 25.1782 213.605 25.284 213.595 25.4004C213.584 25.5182 213.522 25.6483 213.409 25.7914L213.99 26.2506L214.056 26.1664C214.169 26.0233 214.243 25.8817 214.277 25.7427C214.312 25.605 214.313 25.4692 214.283 25.3384C214.253 25.2063 214.192 25.0812 214.101 24.9619C214.012 24.8431 213.898 24.7297 213.765 24.6237C213.476 24.3953 213.19 24.288 212.909 24.303C212.628 24.318 212.371 24.4735 212.136 24.7709C212.037 24.895 211.967 25.0147 211.923 25.1337C211.879 25.2521 211.862 25.3732 211.872 25.4968C211.881 25.6218 211.913 25.7485 211.97 25.8793C212.026 26.0103 212.104 26.1521 212.203 26.3035C212.276 26.4164 212.335 26.5165 212.378 26.6031C212.422 26.6897 212.449 26.7686 212.46 26.8419C212.472 26.9143 212.467 26.9823 212.446 27.0453C212.425 27.1088 212.389 27.1742 212.335 27.2415C212.236 27.3671 212.125 27.4317 212.002 27.4332C211.881 27.4353 211.774 27.3995 211.681 27.3263C211.603 27.2641 211.547 27.2006 211.512 27.1379C211.478 27.0744 211.461 27.0108 211.462 26.9464C211.462 26.8827 211.479 26.8177 211.513 26.7513C211.547 26.6856 211.591 26.6168 211.647 26.5467L211.717 26.4583L211.111 25.9792L211.014 26.1012C210.795 26.3789 210.7 26.6504 210.729 26.9155C210.759 27.1807 210.945 27.4486 211.287 27.7192C211.616 27.9788 211.929 28.1082 212.227 28.109C212.526 28.1104 212.8 27.9523 213.051 27.6353C213.124 27.5427 213.183 27.4524 213.226 27.3634Z" fill="black"/>
<path d="M216.558 28.3474C216.689 28.1393 216.774 27.9377 216.811 27.7431C216.848 27.5504 216.829 27.3603 216.756 27.1772C216.682 26.9943 216.532 26.8119 216.305 26.6322C216.079 26.4531 215.866 26.3487 215.671 26.3193C215.476 26.2899 215.288 26.317 215.108 26.3966C214.928 26.4781 214.75 26.6065 214.578 26.7813C214.404 26.9575 214.228 27.1589 214.049 27.3855C213.867 27.6148 213.712 27.8348 213.582 28.041C213.452 28.2484 213.368 28.4491 213.331 28.6431C213.294 28.8372 213.314 29.0239 213.391 29.2033C213.468 29.3815 213.62 29.5623 213.847 29.7414C214.074 29.9211 214.284 30.0277 214.476 30.0612C214.668 30.0942 214.854 30.0705 215.034 29.9896C215.214 29.9087 215.391 29.7812 215.562 29.6071C215.734 29.4336 215.911 29.2308 216.093 29.0015C216.272 28.7742 216.428 28.5562 216.558 28.3474ZM215.066 29.0279C214.944 29.1618 214.834 29.2613 214.735 29.3264C214.635 29.3914 214.543 29.422 214.455 29.4201C214.368 29.417 214.279 29.3802 214.19 29.3092C214.1 29.2382 214.044 29.1608 214.021 29.0768C213.999 28.9929 214.007 28.8951 214.048 28.7834C214.088 28.6718 214.16 28.5412 214.262 28.3918C214.364 28.2423 214.494 28.0673 214.654 27.8653C214.814 27.6633 214.953 27.4955 215.075 27.3636C215.196 27.2311 215.306 27.1316 215.407 27.0651C215.507 26.9986 215.6 26.9673 215.687 26.9699C215.775 26.9723 215.863 27.0086 215.953 27.0796C216.042 27.1505 216.099 27.2286 216.121 27.3132C216.144 27.3964 216.135 27.4949 216.093 27.608C216.052 27.7211 215.981 27.8522 215.879 27.9997C215.778 28.1471 215.648 28.3227 215.488 28.5247C215.328 28.7267 215.188 28.894 215.066 29.0279Z" fill="black"/>
<path d="M219.332 29.121L217.705 31.1795L217.696 31.1723L218.591 28.5348L217.893 27.9824L215.517 30.9871L216.072 31.4263L217.736 29.3222L217.745 29.3294L216.822 32.0192L217.512 32.5649L219.888 29.5602L219.332 29.121Z" fill="black"/>
</g>
</g>
<g opacity="0.1">
<g clip-path="url(#clip3)">
<path d="M92.1174 14.3929L95.7156 18.2897L92.5982 21.1682L99.0749 28.1824L102.192 25.3039L109.389 33.0974L120.3 23.0225L120.658 14.0285L107.704 0.000200929L92.1174 14.3929ZM99.1346 26.6834L94.0972 21.228L105.787 10.4334L110.825 15.8889L99.1346 26.6834ZM119.282 21.9205L115.982 18.3464L119.556 15.0461L119.282 21.9205ZM119.159 13.9688L114.483 18.2866L118.801 22.9628L109.448 31.5984L102.972 24.5842L112.324 15.9486L105.847 8.93442L96.4949 17.5701L93.6164 14.4527L107.645 1.49919L119.159 13.9688Z" fill="black"/>
<path d="M96.908 20.5593L99.1108 22.9449C99.2749 23.1226 99.3778 23.2715 99.418 23.3932C99.4567 23.5149 99.4175 23.6319 99.2951 23.7449C99.1727 23.8579 99.053 23.8877 98.9355 23.8387C98.8159 23.7889 98.6763 23.6752 98.5122 23.4975L98.4165 23.3939L97.7985 23.9646L97.9331 24.1103C98.0533 24.2404 98.1816 24.3544 98.3152 24.4491C98.4495 24.5445 98.5905 24.6049 98.7403 24.6327C98.8901 24.6604 99.0438 24.644 99.2022 24.5872C99.3614 24.5313 99.5294 24.4209 99.7071 24.2568C100.048 23.9423 100.229 23.6335 100.255 23.3305C100.281 23.0253 100.129 22.6964 99.8007 22.341L97.5813 19.9375L96.908 20.5593V20.5593Z" fill="black"/>
<path d="M102.302 19.4674C102.205 19.4004 102.101 19.3542 101.988 19.3287C101.875 19.3032 101.75 19.2975 101.613 19.3115C101.475 19.3248 101.316 19.3628 101.137 19.4247L100.411 19.6795C100.214 19.7527 100.061 19.7744 99.9516 19.7438C99.8424 19.7147 99.7422 19.6484 99.6465 19.5447C99.6004 19.4948 99.5612 19.4415 99.529 19.3846C99.4967 19.3278 99.4788 19.2678 99.4753 19.2046C99.4719 19.1414 99.485 19.0759 99.5147 19.008C99.5444 18.9416 99.5959 18.8723 99.6707 18.8033C99.8017 18.6824 99.9355 18.6396 100.07 18.6728C100.206 18.7075 100.347 18.8039 100.494 18.9629L101.139 18.3671L101.053 18.2735C100.906 18.1145 100.754 18.0026 100.597 17.9363C100.442 17.8701 100.283 17.8435 100.124 17.8544C99.9641 17.8653 99.806 17.9146 99.6495 17.9984C99.4938 18.0816 99.34 18.1933 99.1911 18.3307C98.87 18.6272 98.6916 18.9422 98.6573 19.2741C98.6231 19.606 98.7578 19.9365 99.0629 20.2669C99.1903 20.4048 99.3175 20.5097 99.4489 20.5833C99.5797 20.6561 99.7184 20.6984 99.865 20.7102C100.013 20.7221 100.168 20.708 100.331 20.665C100.495 20.6235 100.676 20.5594 100.871 20.4711C101.017 20.4056 101.146 20.3551 101.255 20.3204C101.365 20.2858 101.462 20.2679 101.55 20.2691C101.637 20.2681 101.716 20.2863 101.786 20.3228C101.856 20.3587 101.926 20.414 101.995 20.4888C102.124 20.6283 102.179 20.7709 102.158 20.9142C102.139 21.0568 102.077 21.1759 101.974 21.2709C101.887 21.3515 101.802 21.4052 101.722 21.4343C101.641 21.4626 101.564 21.4708 101.488 21.458C101.414 21.446 101.341 21.4138 101.269 21.3615C101.198 21.3098 101.126 21.2454 101.054 21.1675L100.963 21.0693L100.29 21.691L100.415 21.8266C100.7 22.1353 101.001 22.2966 101.317 22.3107C101.633 22.3248 101.981 22.1563 102.362 21.8051C102.726 21.4683 102.936 21.1246 102.992 20.7755C103.049 20.4257 102.914 20.075 102.589 19.7227C102.494 19.6199 102.399 19.5343 102.302 19.4674Z" fill="black"/>
<path d="M104.069 15.7441C103.849 15.5529 103.629 15.4157 103.408 15.3371C103.189 15.2578 102.962 15.2443 102.734 15.296C102.506 15.3493 102.265 15.4913 102.012 15.7244C101.761 15.9569 101.599 16.1869 101.529 16.4093C101.458 16.6332 101.455 16.8583 101.515 17.0844C101.578 17.3098 101.695 17.542 101.868 17.7763C102.043 18.0122 102.246 18.2561 102.479 18.5078C102.714 18.7626 102.943 18.9857 103.161 19.176C103.38 19.3664 103.6 19.5013 103.82 19.5807C104.041 19.66 104.263 19.6711 104.488 19.614C104.711 19.5568 104.951 19.4117 105.203 19.1793C105.455 18.9461 105.619 18.7199 105.694 18.5007C105.768 18.2822 105.774 18.0595 105.713 17.8334C105.651 17.6072 105.534 17.3774 105.362 17.1438C105.19 16.911 104.985 16.6656 104.75 16.4108C104.517 16.1583 104.29 15.936 104.069 15.7441ZM104.591 17.6183C104.726 17.7858 104.822 17.9338 104.88 18.0622C104.938 18.1906 104.957 18.3047 104.938 18.4068C104.919 18.5089 104.859 18.6056 104.759 18.6977C104.66 18.7898 104.558 18.8414 104.456 18.8523C104.353 18.8632 104.24 18.8347 104.117 18.7667C103.994 18.6987 103.854 18.5911 103.698 18.4437C103.541 18.2964 103.36 18.1113 103.153 17.8868C102.946 17.6623 102.775 17.4679 102.643 17.3012C102.51 17.1353 102.413 16.9873 102.354 16.8573C102.295 16.7273 102.275 16.6125 102.294 16.5111C102.313 16.4083 102.372 16.3123 102.472 16.2202C102.571 16.1281 102.673 16.0758 102.777 16.0657C102.878 16.054 102.992 16.0833 103.117 16.1528C103.242 16.2223 103.382 16.3293 103.536 16.4758C103.691 16.6223 103.872 16.8067 104.08 17.0312C104.287 17.2556 104.457 17.4508 104.591 17.6183Z" fill="black"/>
<path d="M105.489 12.6364L107.601 14.9238L107.591 14.9331L104.665 13.397L103.889 14.1138L106.972 17.4525L107.589 16.8826L105.43 14.5445L105.44 14.5352L108.422 16.1133L109.189 15.4052L106.106 12.0664L105.489 12.6364Z" fill="black"/>
</g>
</g>
<g opacity="0.03">
<g clip-path="url(#clip4)">
<path d="M28.9271 29.0079L23.9172 35.1082L19.037 31.1003L10.0192 42.0808L14.8994 46.0887L4.87963 58.2893L21.9604 72.317L35.2926 71.0085L53.3283 49.0475L28.9271 29.0079ZM12.2412 41.8627L19.2551 33.3223L37.5559 48.352L30.5421 56.8924L12.2412 41.8627ZM23.3772 70.5918L27.9723 64.9966L33.5675 69.5917L23.3772 70.5918ZM35.0746 68.7865L27.7542 62.7746L21.7424 70.095L7.10167 58.0712L16.1195 47.0907L30.7602 59.1144L39.778 48.1339L25.1373 36.1102L29.1452 31.2299L51.1062 49.2656L35.0746 68.7865Z" fill="black"/>
<path d="M20.8147 37.3282L17.7476 41.0628C17.5192 41.341 17.3205 41.5232 17.1493 41.6073C16.9779 41.6892 16.7973 41.6553 16.6058 41.498C16.4142 41.3407 16.3459 41.1701 16.3941 40.987C16.4431 40.8005 16.5822 40.5715 16.8106 40.2933L16.9439 40.1311L15.9764 39.3365L15.789 39.5646C15.6217 39.7684 15.4799 39.9808 15.3676 40.1971C15.2544 40.4147 15.1941 40.6348 15.1838 40.8613C15.1735 41.0878 15.229 41.3111 15.345 41.5331C15.4601 41.7562 15.6571 41.9814 15.9353 42.2099C16.4685 42.6477 16.9608 42.8518 17.4128 42.8288C17.868 42.8043 18.3218 42.513 18.7787 41.9566L21.8688 38.194L20.8147 37.3282V37.3282Z" fill="black"/>
<path d="M23.5262 45.0588C23.605 44.9008 23.6519 44.7391 23.6664 44.5672C23.681 44.3953 23.6639 44.2096 23.6151 44.0102C23.5674 43.8096 23.4791 43.5839 23.3511 43.3317L22.8271 42.313C22.679 42.0381 22.6158 41.8166 22.6386 41.6495C22.6593 41.4826 22.7365 41.3213 22.8698 41.1591C22.9339 41.081 23.0046 41.0123 23.0818 40.9532C23.159 40.894 23.2438 40.8554 23.3363 40.8373C23.4287 40.8193 23.528 40.8252 23.6342 40.8552C23.7381 40.8854 23.8507 40.9473 23.9678 41.0434C24.1728 41.2118 24.2631 41.4003 24.2417 41.6055C24.2184 41.813 24.105 42.0407 23.9006 42.2895L24.9108 43.1192L25.031 42.9728C25.2354 42.7239 25.3693 42.4763 25.435 42.232C25.501 41.99 25.5078 41.7504 25.4592 41.5185C25.4105 41.2844 25.3056 41.0613 25.15 40.8478C24.9956 40.6352 24.7995 40.4312 24.5665 40.2399C24.0638 39.8271 23.5631 39.6283 23.0668 39.6456C22.5704 39.6629 22.1108 39.929 21.686 40.4463C21.5086 40.6622 21.3799 40.8712 21.2984 41.08C21.2178 41.2875 21.1837 41.5006 21.1962 41.7193C21.2089 41.9401 21.2613 42.1649 21.3581 42.3977C21.4528 42.6307 21.5842 42.8837 21.7543 43.1541C21.8807 43.356 21.9812 43.5346 22.0547 43.6889C22.1282 43.8432 22.1745 43.9834 22.1906 44.113C22.2099 44.2413 22.1992 44.3612 22.1596 44.4717C22.1211 44.5831 22.0538 44.6974 21.9577 44.8145C21.7783 45.0329 21.5794 45.1433 21.3639 45.142C21.1496 45.1417 20.9613 45.075 20.8003 44.9427C20.6636 44.8305 20.5672 44.7166 20.508 44.6046C20.4498 44.4914 20.4219 44.3786 20.4253 44.265C20.4277 44.1526 20.4603 44.0383 20.5229 43.9222C20.5845 43.8074 20.6647 43.6873 20.7649 43.5653L20.8912 43.4116L19.8371 42.5459L19.6627 42.7582C19.2659 43.2413 19.0894 43.7174 19.1332 44.1865C19.177 44.6556 19.4966 45.1346 20.092 45.6235C20.663 46.0925 21.2125 46.3313 21.7386 46.3425C22.2659 46.3547 22.7553 46.0845 23.2082 45.5331C23.3405 45.372 23.4473 45.2146 23.5262 45.0588Z" fill="black"/>
<path d="M29.3777 46.9038C29.6146 46.5407 29.7718 46.1876 29.8425 45.8453C29.9147 45.5062 29.8884 45.17 29.7656 44.8444C29.6406 44.5191 29.3819 44.1922 28.9866 43.8676C28.5925 43.544 28.2204 43.3528 27.8782 43.2944C27.5337 43.2362 27.2013 43.2778 26.8802 43.4125C26.5606 43.5504 26.2424 43.7712 25.9323 44.0743C25.6201 44.3797 25.3022 44.7295 24.9786 45.1236C24.6509 45.5225 24.3689 45.9058 24.1327 46.2655C23.8968 46.6274 23.7428 46.979 23.6709 47.3204C23.599 47.6617 23.628 47.992 23.758 48.3112C23.8879 48.6283 24.1508 48.9525 24.5448 49.2761C24.9401 49.6007 25.307 49.7958 25.6455 49.8613C25.9827 49.9258 26.3124 49.8901 26.6332 49.7532C26.954 49.6162 27.269 49.3969 27.5781 49.0951C27.8863 48.7945 28.2062 48.4423 28.5338 48.0433C28.8585 47.648 29.1398 47.2682 29.3777 46.9038ZM26.7213 48.0563C26.5018 48.2887 26.3033 48.4608 26.1258 48.5724C25.9483 48.6841 25.784 48.735 25.6297 48.7288C25.4752 48.7204 25.3204 48.6526 25.1643 48.5243C25.0081 48.3961 24.9115 48.2575 24.8745 48.1086C24.8374 47.9597 24.8564 47.7873 24.9314 47.5915C25.0064 47.3957 25.1366 47.1675 25.3219 46.9071C25.5072 46.6466 25.7431 46.3419 26.0317 45.9905C26.3203 45.6391 26.5721 45.3474 26.7908 45.1184C27.0083 44.8885 27.2067 44.7164 27.3862 44.6023C27.5657 44.4883 27.7311 44.4361 27.8844 44.4435C28.0399 44.4507 28.1934 44.5175 28.3496 44.6458C28.5057 44.774 28.6036 44.9136 28.6396 45.0638C28.6777 45.2115 28.6577 45.385 28.5807 45.5833C28.5037 45.7815 28.3747 46.0107 28.1902 46.2677C28.0056 46.5248 27.7709 46.8305 27.4824 47.1818C27.1938 47.5332 26.9408 47.8239 26.7213 48.0563Z" fill="black"/>
<path d="M34.2489 48.3608L31.3081 51.9416L31.2922 51.9286L32.9593 47.3017L31.7441 46.3037L27.4517 51.5304L28.4179 52.324L31.4239 48.6638L31.4397 48.6769L29.7222 53.3951L30.9227 54.3811L35.2152 49.1543L34.2489 48.3608Z" fill="black"/>
</g>
</g>
<g opacity="0.03">
<g clip-path="url(#clip5)">
<path d="M259.598 56.6431L265.009 62.3908L260.411 66.7194L270.15 77.0653L274.748 72.7367L285.57 84.2322L301.663 69.0821L302.068 55.6919L282.589 35.0001L259.598 56.6431ZM270.217 74.8336L262.642 66.7868L279.886 50.5546L287.461 58.6014L270.217 74.8336ZM300.133 67.4566L295.17 62.1848L300.442 57.2221L300.133 67.4566ZM299.836 55.6245L292.939 62.1174L299.432 69.0147L285.637 82.0005L275.898 71.6546L289.692 58.6688L279.953 48.3229L266.158 61.3087L261.83 56.7105L282.522 37.2318L299.836 55.6245Z" fill="black"/>
<path d="M266.814 65.7517L270.126 69.2704C270.373 69.5325 270.528 69.7528 270.59 69.9333C270.649 70.1138 270.593 70.2886 270.412 70.4585C270.232 70.6284 270.054 70.6744 269.878 70.6032C269.7 70.5308 269.49 70.3636 269.244 70.1015L269.1 69.9486L268.188 70.8068L268.39 71.0217C268.571 71.2137 268.764 71.3815 268.964 71.5204C269.165 71.6605 269.376 71.7484 269.599 71.7876C269.823 71.8267 270.051 71.8001 270.286 71.7134C270.522 71.6278 270.771 71.4611 271.033 71.2143C271.535 70.7414 271.8 70.2793 271.835 69.828C271.869 69.3733 271.638 68.8861 271.145 68.3619L267.807 64.8167L266.814 65.7517V65.7517Z" fill="black"/>
<path d="M274.828 64.0492C274.681 63.951 274.527 63.8838 274.358 63.8474C274.19 63.8111 274.004 63.8043 273.8 63.8272C273.595 63.8489 273.359 63.9077 273.093 64.0024L272.016 64.3921C271.724 64.5039 271.496 64.5383 271.333 64.4943C271.171 64.4525 271.02 64.3553 270.877 64.2024C270.807 64.1289 270.748 64.05 270.699 63.9659C270.651 63.8818 270.623 63.7927 270.617 63.6987C270.611 63.6047 270.63 63.507 270.673 63.4055C270.716 63.3063 270.792 63.2025 270.902 63.0986C271.095 62.9168 271.294 62.8513 271.494 62.8987C271.697 62.9484 271.909 63.0899 272.129 63.3244L273.081 62.4284L272.951 62.2905C272.731 62.056 272.502 61.8916 272.268 61.7952C272.037 61.6988 271.8 61.6615 271.564 61.6801C271.325 61.6986 271.091 61.7741 270.859 61.9012C270.628 62.0271 270.401 62.1956 270.182 62.4023C269.708 62.8481 269.447 63.3194 269.401 63.8139C269.354 64.3084 269.56 64.7982 270.018 65.2856C270.21 65.489 270.401 65.6433 270.597 65.7509C270.793 65.8573 271 65.9183 271.219 65.9338C271.439 65.9494 271.669 65.9262 271.912 65.8599C272.155 65.7957 272.423 65.6977 272.713 65.5635C272.929 65.4639 273.119 65.387 273.282 65.3338C273.444 65.2807 273.589 65.2527 273.72 65.2533C273.849 65.2505 273.967 65.2764 274.071 65.3298C274.177 65.3821 274.282 65.4635 274.386 65.5738C274.579 65.7796 274.663 65.991 274.635 66.2045C274.607 66.417 274.517 66.5952 274.365 66.7381C274.236 66.8593 274.111 66.9404 273.992 66.9848C273.873 67.0281 273.757 67.0414 273.645 67.0235C273.534 67.0067 273.425 66.9599 273.317 66.8829C273.211 66.8071 273.103 66.7122 272.994 66.5973L272.858 66.4524L271.865 67.3874L272.053 67.5874C272.482 68.0427 272.931 68.2785 273.402 68.2949C273.873 68.3114 274.389 68.0556 274.95 67.5275C275.488 67.021 275.795 66.5065 275.873 65.9862C275.953 65.4648 275.747 64.9448 275.258 64.4252C275.115 64.2735 274.973 64.1474 274.828 64.0492Z" fill="black"/>
<path d="M277.406 58.4817C277.076 58.2003 276.746 57.9993 276.416 57.8855C276.088 57.7706 275.752 57.7538 275.413 57.834C275.074 57.9165 274.717 58.1313 274.345 58.4819C273.974 58.8314 273.736 59.1761 273.635 59.5081C273.533 59.8423 273.532 60.1773 273.625 60.5129C273.721 60.8476 273.899 61.1914 274.16 61.5376C274.423 61.8862 274.729 62.2462 275.079 62.6175C275.433 62.9934 275.777 63.3221 276.103 63.6022C276.432 63.8824 276.761 64.08 277.091 64.1949C277.42 64.3099 277.751 64.3232 278.085 64.235C278.416 64.1467 278.771 63.9274 279.142 63.5778C279.514 63.2272 279.755 62.8882 279.863 62.5609C279.97 62.2347 279.977 61.9032 279.882 61.5675C279.787 61.2318 279.61 60.8914 279.35 60.5462C279.091 60.2022 278.782 59.84 278.429 59.4641C278.078 59.0916 277.737 58.7642 277.406 58.4817ZM278.21 61.2635C278.413 61.5108 278.558 61.7296 278.646 61.9199C278.734 62.1102 278.763 62.2798 278.738 62.432C278.71 62.5842 278.623 62.729 278.475 62.8675C278.328 63.006 278.179 63.0841 278.026 63.1019C277.874 63.1196 277.705 63.0788 277.52 62.9794C277.336 62.88 277.126 62.7217 276.892 62.5047C276.657 62.2876 276.385 62.0147 276.073 61.6837C275.761 61.3526 275.504 61.0656 275.305 60.8195C275.105 60.5744 274.959 60.3556 274.869 60.163C274.779 59.9704 274.748 59.7997 274.775 59.6486C274.802 59.4953 274.888 59.3516 275.035 59.2131C275.182 59.0746 275.333 58.9954 275.487 58.9788C275.638 58.9599 275.808 59.0019 275.995 59.1036C276.181 59.2053 276.392 59.3624 276.624 59.5782C276.855 59.7941 277.128 60.0659 277.44 60.397C277.752 60.728 278.008 61.0161 278.21 61.2635Z" fill="black"/>
<path d="M279.471 53.8365L282.647 57.2104L282.633 57.2244L278.256 54.9803L277.111 56.0581L281.747 60.9828L282.658 60.1257L279.411 56.6771L279.426 56.663L283.887 58.9689L285.018 57.904L280.382 52.9794L279.471 53.8365Z" fill="black"/>
</g>
</g>
<defs>
<clipPath id="clip0">
<rect width="17.8436" height="17.8436" fill="white" transform="translate(43.1484 114.772) rotate(-42.231)"/>
</clipPath>
<clipPath id="clip1">
<rect width="20.212" height="20.212" fill="white" transform="translate(224.578 112.034) rotate(26.9758)"/>
</clipPath>
<clipPath id="clip2">
<rect width="21.4592" height="21.4592" fill="white" transform="translate(213.311 16) rotate(38.3332)"/>
</clipPath>
<clipPath id="clip3">
<rect width="25.4589" height="25.4589" fill="white" transform="translate(89 17.2715) rotate(-42.7187)"/>
</clipPath>
<clipPath id="clip4">
<rect width="37.8904" height="37.8904" fill="white" transform="translate(24.0469 25) rotate(39.3947)"/>
</clipPath>
<clipPath id="clip5">
<rect width="37.8904" height="37.8904" fill="white" transform="translate(255 60.9717) rotate(-43.2702)"/>
</clipPath>
</defs>
</svg>
