<svg id="Layer_1" data-name="Layer 1" xmlns="http://www.w3.org/2000/svg" viewBox="0 0 13 14"><defs><style>.cls-1{fill:none;}.cls-1,.cls-3{stroke:#333;stroke-miterlimit:10;stroke-width:0.5px;}.cls-2{fill:#333;}.cls-3{fill:#fff;}</style></defs><line class="cls-1" x1="8.54" y1="2" x2="8.54" y2="4.5"/><polygon class="cls-2" points="7.34 4.1 8.54 6.3 9.84 4.1 7.34 4.1"/><ellipse class="cls-1" cx="4.75" cy="6.3" rx="3.5" ry="1.5"/><path class="cls-1" d="M1.25,6.3v5.6s.3,1.5,3.5,1.5c0,0,3.2,0,3.5-1.5V6.3"/><path class="cls-1" d="M1.25,8.6a6.46,6.46,0,0,0,7,0"/><path class="cls-1" d="M1.25,10.4a6.46,6.46,0,0,0,7,0"/><circle class="cls-3" cx="9.05" cy="4.1" r="3.2"/><path d="M10,2.33,7.89,4.49,7.48,5.74l1.26-.41,2.15-2.15Zm.57.85-.28.28-.57-.57L10,2.61ZM8,4.73l.48.47-.22.07L8,4.94Zm.1-.19L9.62,3l.21.21-1.5,1.5Zm.35.35L10,3.39l.22.21L8.68,5.1Zm-.59.26.19.19-.28.09Z"/></svg>