<svg id="Layer_1" data-name="Layer 1" xmlns="http://www.w3.org/2000/svg" xmlns:xlink="http://www.w3.org/1999/xlink" viewBox="0 0 111 59"><defs><style>.cls-1{fill:url(#radial-gradient);}.cls-2,.cls-5{fill:none;}.cls-2,.cls-4{stroke:#333;stroke-miterlimit:10;}.cls-3{fill:#333;}.cls-4{fill:#fff;}.cls-6{fill:#434343;}</style><radialGradient id="radial-gradient" cx="55.58" cy="44.27" r="31.77" gradientUnits="userSpaceOnUse"><stop offset="0" stop-color="#ffc8aa"/><stop offset="0.31" stop-color="#ffc7a7"/><stop offset="0.53" stop-color="#ffc59e"/><stop offset="0.73" stop-color="#ffc18e"/><stop offset="0.91" stop-color="#ffbc77"/><stop offset="1" stop-color="#ffb96a"/></radialGradient></defs><ellipse class="cls-1" cx="55.58" cy="44.27" rx="42.77" ry="13.73"/><line class="cls-2" x1="67.57" y1="5.43" x2="67.57" y2="14.45"/><polygon class="cls-3" points="63.24 13.01 67.57 20.95 72.26 13.01 63.24 13.01"/><path class="cls-4" d="M41.24,21V41.16s1.08,5.41,12.63,5.41c0,0,11.55,0,12.63-5.41V21"/><path class="cls-2" d="M41.24,29.25s11.19,8.3,25.26,0"/><path class="cls-2" d="M41.24,35.75s11.19,8.3,25.26,0"/><rect class="cls-5" x="110.43" y="11.66" width="13" height="13"/><rect class="cls-5" x="110.93" y="11.66" width="13" height="13"/><path class="cls-3" d="M69.45,17a1.68,1.68,0,1,1-1.7,1.67A1.66,1.66,0,0,1,69.45,17ZM68,8.54V5.22h3V8.54l-.8,7.32H68.76Z"/><ellipse class="cls-2" cx="53.87" cy="20.95" rx="12.63" ry="5.41"/><circle class="cls-4" cx="69.39" cy="13.01" r="11.55"/><path class="cls-6" d="M69.45,17.24a1.68,1.68,0,1,1-1.71,1.67A1.66,1.66,0,0,1,69.45,17.24ZM68,8.75V5.41h3V8.75l-.81,7.35H68.75Z"/></svg>