<svg width="384" height="384" viewBox="0 0 384 384" fill="none" xmlns="http://www.w3.org/2000/svg">
<path d="M64 0V80H0V224H64V384H288L384 288V0H64ZM16 208V96H256V208H16ZM288 361.376V288H361.376L288 361.376ZM368 272H272V368H80V224H272V80H80V16H368V272Z" fill="#D91010"/>
<path d="M264 91H7V213H264V91Z" fill="#D91010"/>
<path d="M53.976 117.344V166.32C53.976 169.968 53.592 172.672 52.792 174.432C51.976 176.176 50.344 177.072 47.832 177.072C45.32 177.072 43.688 176.176 42.888 174.432C42.072 172.656 41.688 169.968 41.688 166.32V164.192H29V167.184C29 169.856 29.256 172.432 29.768 174.848C30.28 177.28 31.224 179.392 32.6 181.232C33.976 183.072 35.848 184.464 38.184 185.456C40.52 186.464 43.512 186.96 47.16 186.96C54.152 186.96 59.32 185.392 62.712 182.304C66.12 179.184 67.8 173.984 67.8 166.688V117.344H53.976Z" fill="white"/>
<path d="M124.937 160.448C124.537 158.704 123.865 157.136 122.873 155.696C121.881 154.256 120.553 152.912 118.889 151.664C117.225 150.4 115.081 149.2 112.457 148.048L101.801 143.44C98.8729 142.24 96.9529 140.912 96.0569 139.456C95.1449 138.016 94.7129 136.256 94.7129 134.128C94.7129 133.104 94.8249 132.112 95.0489 131.152C95.2729 130.192 95.6889 129.344 96.2969 128.608C96.9049 127.872 97.7209 127.28 98.7449 126.832C99.7529 126.4 101.033 126.16 102.569 126.16C105.257 126.16 107.177 127.056 108.329 128.8C109.481 130.576 110.057 133.088 110.057 136.352H123.305V134.432C123.305 131.168 122.761 128.368 121.705 126.032C120.665 123.712 119.177 121.792 117.305 120.288C115.417 118.768 113.161 117.696 110.569 117.024C107.993 116.352 105.145 116.016 102.089 116.016C95.4969 116.016 90.2969 117.68 86.5209 121.008C82.7449 124.336 80.8569 129.376 80.8569 136.16C80.8569 138.992 81.1929 141.456 81.8969 143.616C82.6009 145.76 83.7049 147.648 85.2089 149.28C86.7289 150.928 88.5849 152.352 90.8409 153.552C93.0809 154.768 95.7369 155.904 98.8089 156.928C101.097 157.696 103.033 158.448 104.601 159.184C106.169 159.92 107.433 160.72 108.393 161.632C109.369 162.512 110.057 163.52 110.457 164.64C110.873 165.76 111.081 167.088 111.081 168.624C111.081 171.488 110.233 173.632 108.537 175.008C106.857 176.384 104.953 177.072 102.841 177.072C101.049 177.072 99.5609 176.8 98.3769 176.304C97.1929 175.792 96.2489 175.088 95.5449 174.176C94.8409 173.28 94.3609 172.176 94.1049 170.864C93.8489 169.568 93.7049 168.112 93.7049 166.512V164.496H79.8809V167.28C79.8809 173.616 81.5609 178.48 84.9209 181.872C88.2809 185.264 93.8649 186.96 101.673 186.96C109.161 186.96 115.001 185.296 119.193 182C123.401 178.704 125.497 173.44 125.497 166.208C125.497 164.096 125.321 162.176 124.937 160.448Z" fill="white"/>
<path d="M182.633 137.264C182.153 132.896 181.113 129.12 179.465 125.984C177.849 122.864 175.481 120.4 172.425 118.64C169.353 116.896 165.225 116 160.041 116C154.873 116 150.729 116.896 147.673 118.64C144.601 120.4 142.265 122.864 140.617 125.984C139.001 129.12 137.929 132.896 137.449 137.264C136.969 141.664 136.729 146.448 136.729 151.616C136.729 156.848 136.985 161.664 137.449 166C137.929 170.352 138.985 174.096 140.617 177.232C142.249 180.368 144.601 182.768 147.673 184.432C150.729 186.08 154.873 186.928 160.041 186.928C165.225 186.928 169.353 186.096 172.425 184.432C175.481 182.768 177.833 180.368 179.465 177.232C181.097 174.096 182.153 170.352 182.633 166C183.113 161.664 183.353 156.848 183.353 151.616C183.353 146.432 183.113 141.648 182.633 137.264ZM169.241 163.376C169.017 166.608 168.569 169.232 167.897 171.248C167.225 173.264 166.265 174.72 165.017 175.664C163.753 176.592 162.105 177.056 160.057 177.056C158.009 177.056 156.361 176.592 155.113 175.664C153.865 174.736 152.905 173.264 152.233 171.248C151.561 169.232 151.113 166.608 150.889 163.376C150.665 160.144 150.553 156.24 150.553 151.632C150.553 147.024 150.649 143.12 150.889 139.92C151.113 136.72 151.561 134.096 152.233 132.048C152.905 130 153.865 128.528 155.113 127.6C156.377 126.656 158.009 126.192 160.057 126.192C162.105 126.192 163.769 126.656 165.017 127.6C166.265 128.512 167.225 130 167.897 132.048C168.569 134.096 169.033 136.72 169.241 139.92C169.449 143.12 169.577 147.024 169.577 151.632C169.577 156.24 169.465 160.144 169.241 163.376Z" fill="white"/>
<path d="M230.153 117.344V164.304H229.945L213.241 117.344H197.305V185.888H209.977V137.888H210.185L227.081 185.888H242.825V117.344H230.153Z" fill="white"/>
</svg>
