<svg width="14" height="14" viewBox="0 0 14 14" fill="none" xmlns="http://www.w3.org/2000/svg">
<path d="M13.9236 4.16339L11.8369 2.07643C11.7881 2.02739 11.7218 2 11.6524 2H2.78261C2.35113 2 2 2.35113 2 2.78261V13.2174C2 13.6489 2.35113 14 2.78261 14H13.2174C13.6489 14 14 13.6489 14 13.2174V4.34783C14 4.2787 13.9726 4.21217 13.9236 4.16339ZM8.26087 2.52174H9.30435V4.6087H8.26087V2.52174ZM5.13043 2.52174H7.73913V4.86957C7.73913 5.01357 7.85574 5.13043 8 5.13043H9.56522C9.70948 5.13043 9.82609 5.01357 9.82609 4.86957V2.52174H10.8696V6.17391H5.13043V2.52174ZM11.3913 13.4783H4.6087V8.26087H11.3913V13.4783ZM13.4783 13.2174C13.4783 13.3611 13.3614 13.4783 13.2174 13.4783H11.913V8C11.913 7.856 11.7964 7.73913 11.6522 7.73913H4.34783C4.20357 7.73913 4.08696 7.856 4.08696 8V13.4783H2.78261C2.63861 13.4783 2.52174 13.3611 2.52174 13.2174V2.78261C2.52174 2.63887 2.63861 2.52174 2.78261 2.52174H4.6087V6.43478C4.6087 6.57878 4.7253 6.69565 4.86957 6.69565H11.1304C11.2747 6.69565 11.3913 6.57878 11.3913 6.43478V2.52174H11.5444L13.4783 4.45583V13.2174Z" fill="black"/>
<path d="M11 2V1H1V12H2" stroke="black" stroke-width="0.5"/>
</svg>
