<svg width="12" height="12" viewBox="0 0 12 12" fill="none" xmlns="http://www.w3.org/2000/svg">
<circle cx="6" cy="6" r="6" fill="#129D39"/>
<g clip-path="url(#clip0)">
<path d="M8.95753 5.35717H6.77182C6.70082 5.35717 6.64325 5.2996 6.64325 5.2286V3.04288C6.64325 2.68787 6.35541 2.40002 6.00039 2.40002C5.64538 2.40002 5.35753 2.68787 5.35753 3.04288V5.2286C5.35753 5.2996 5.29996 5.35717 5.22896 5.35717H3.04325C2.68823 5.35717 2.40039 5.64501 2.40039 6.00002C2.40039 6.35504 2.68823 6.64288 3.04325 6.64288H5.22896C5.29996 6.64288 5.35753 6.70045 5.35753 6.77145V8.95717C5.35753 9.31218 5.64538 9.60002 6.00039 9.60002C6.35541 9.60002 6.64325 9.31218 6.64325 8.95717V6.77145C6.64325 6.70045 6.70082 6.64288 6.77182 6.64288H8.95753C9.31255 6.64288 9.60039 6.35504 9.60039 6.00002C9.60039 5.64501 9.31255 5.35717 8.95753 5.35717Z" fill="white"/>
</g>
<defs>
<clipPath id="clip0">
<rect width="4.8" height="4.8" fill="white" transform="translate(3.59961 3.59998)"/>
</clipPath>
</defs>
</svg>
