<svg width="512" height="512" viewBox="0 0 512 512" fill="none" xmlns="http://www.w3.org/2000/svg">
<g clip-path="url(#clip0)">
<path d="M508.745 246.042C504.171 239.785 395.188 92.8359 255.997 92.8359C116.806 92.8359 7.818 239.785 3.249 246.036C-1.083 251.972 -1.083 260.023 3.249 265.959C7.818 272.216 116.806 419.165 255.997 419.165C395.188 419.165 504.171 272.215 508.745 265.964C513.083 260.029 513.083 251.972 508.745 246.042ZM255.997 385.407C153.468 385.407 64.667 287.874 38.38 255.989C64.633 224.076 153.248 126.594 255.997 126.594C358.521 126.594 447.316 224.11 473.614 256.012C447.361 287.924 358.746 385.407 255.997 385.407Z" fill="black"/>
<path d="M255.997 154.725C200.155 154.725 154.722 200.158 154.722 256C154.722 311.842 200.155 357.275 255.997 357.275C311.839 357.275 357.272 311.842 357.272 256C357.272 200.158 311.839 154.725 255.997 154.725ZM255.997 323.516C218.767 323.516 188.481 293.229 188.481 256C188.481 218.771 218.768 188.484 255.997 188.484C293.226 188.484 323.513 218.771 323.513 256C323.513 293.229 293.227 323.516 255.997 323.516Z" fill="black"/>
</g>
<path d="M41 82L438 461" stroke="black" stroke-width="40"/>
<defs>
<clipPath id="clip0">
<rect width="511.999" height="511.999" fill="white"/>
</clipPath>
</defs>
</svg>
