<svg id="Layer_1" data-name="Layer 1" xmlns="http://www.w3.org/2000/svg" xmlns:xlink="http://www.w3.org/1999/xlink" viewBox="0 0 27.25 30.77"><defs><style>.cls-1{fill:#fff;fill-rule:evenodd;}.cls-2{mask:url(#mask);}</style><mask id="mask" x="10.9" y="0" width="177.28" height="30.24" maskUnits="userSpaceOnUse"><g id="mask-4"><polygon id="path-3" class="cls-1" points="10.9 0 188.18 0 188.18 30.25 10.9 30.25 10.9 0"/></g></mask></defs><g id="Clip-2"><path id="path-1" class="cls-1" d="M2.26,3.19A5.65,5.65,0,0,1,4,7.27H4C4,12,0,15.32,0,20.72H0c0,5,3.48,10.05,13.55,10.05h0c9,0,13.7-4.39,13.7-9.07h0c0-4-2.88-7.4-8.43-7.94h0l-.08.2a7.81,7.81,0,0,1,4.14,7.26h0a8.78,8.78,0,0,1-9.14,8.47h0c-6.95,0-9.35-4.07-9.35-7.8h0c0-4.78,3.35-8,3.35-12.32h0A6.82,6.82,0,0,0,2.37,3h0Z"/></g><g class="cls-2"><path id="Fill-85" class="cls-1" d="M13.66,24.07,16.19,0H10.9l2.53,24.07Z"/></g></svg>