<svg id="Layer_1" data-name="Layer 1" xmlns="http://www.w3.org/2000/svg" viewBox="0 0 11.3 12.8"><defs><style>.cls-1,.cls-2,.cls-5{fill:none;}.cls-2{stroke:#333;stroke-width:0.5px;}.cls-2,.cls-5{stroke-miterlimit:10;}.cls-3{fill:#333;}.cls-4{fill:#d91010;}.cls-5{stroke:#fff;stroke-width:0.8px;}</style></defs><rect class="cls-1" x="-1.1" y="-0.2" width="13" height="13"/><line class="cls-2" x1="7.6" y1="1.1" x2="7.6" y2="3.6"/><polygon class="cls-3" points="6.4 3.2 7.6 5.4 8.9 3.2 6.4 3.2"/><rect class="cls-1" x="-0.6" y="-0.2" width="13" height="13"/><ellipse class="cls-2" cx="3.8" cy="5.4" rx="3.5" ry="1.5"/><path class="cls-2" d="M.3,5.4V11s.3,1.5,3.5,1.5c0,0,3.2,0,3.5-1.5V5.4"/><path class="cls-2" d="M.3,7.7a6.46,6.46,0,0,0,7,0"/><path class="cls-2" d="M.3,9.5a6.46,6.46,0,0,0,7,0"/><circle class="cls-4" cx="8.1" cy="3.2" r="3.2"/><line class="cls-5" x1="6.3" y1="3.1" x2="9.9" y2="3.1"/><rect class="cls-1" x="-0.9" y="-0.2" width="13" height="13"/></svg>