<svg width="384" height="384" viewBox="0 0 384 384" fill="none" xmlns="http://www.w3.org/2000/svg">
<path d="M64 0V80H0V224H64V384H288L384 288V0H64ZM16 208V96H256V208H16ZM288 361.376V288H361.376L288 361.376ZM368 272H272V368H80V224H272V80H80V16H368V272Z" fill="#828282"/>
<path d="M262 92H9V212H262V92Z" fill="#E65A14"/>
<path d="M53.976 117.344V166.32C53.976 169.968 53.592 172.672 52.792 174.432C51.976 176.176 50.344 177.072 47.832 177.072C45.32 177.072 43.688 176.176 42.888 174.432C42.072 172.656 41.688 169.968 41.688 166.32V164.192H29V167.184C29 169.856 29.256 172.432 29.768 174.848C30.28 177.28 31.224 179.392 32.6 181.232C33.976 183.072 35.848 184.464 38.184 185.456C40.52 186.464 43.512 186.96 47.16 186.96C54.152 186.96 59.32 185.392 62.712 182.304C66.12 179.184 67.8 173.984 67.8 166.688V117.344H53.976Z" fill="white"/>
<path d="M124.939 160.448C124.539 158.704 123.867 157.136 122.875 155.696C121.883 154.256 120.555 152.912 118.891 151.664C117.227 150.4 115.083 149.2 112.459 148.048L101.803 143.44C98.8748 142.24 96.9548 140.912 96.0588 139.456C95.1468 138.016 94.7148 136.256 94.7148 134.128C94.7148 133.104 94.8268 132.112 95.0508 131.152C95.2748 130.192 95.6908 129.344 96.2988 128.608C96.9068 127.872 97.7228 127.28 98.7468 126.832C99.7548 126.4 101.035 126.16 102.571 126.16C105.259 126.16 107.179 127.056 108.331 128.8C109.483 130.576 110.059 133.088 110.059 136.352H123.307V134.432C123.307 131.168 122.763 128.368 121.707 126.032C120.667 123.712 119.179 121.792 117.307 120.288C115.419 118.768 113.163 117.696 110.571 117.024C107.995 116.352 105.147 116.016 102.091 116.016C95.4988 116.016 90.2988 117.68 86.5228 121.008C82.7468 124.336 80.8588 129.376 80.8588 136.16C80.8588 138.992 81.1948 141.456 81.8988 143.616C82.6028 145.76 83.7068 147.648 85.2108 149.28C86.7308 150.928 88.5868 152.352 90.8428 153.552C93.0828 154.768 95.7388 155.904 98.8108 156.928C101.099 157.696 103.035 158.448 104.603 159.184C106.171 159.92 107.435 160.72 108.395 161.632C109.371 162.512 110.059 163.52 110.459 164.64C110.875 165.76 111.083 167.088 111.083 168.624C111.083 171.488 110.235 173.632 108.539 175.008C106.859 176.384 104.955 177.072 102.843 177.072C101.051 177.072 99.5628 176.8 98.3788 176.304C97.1948 175.792 96.2508 175.088 95.5468 174.176C94.8428 173.28 94.3628 172.176 94.1068 170.864C93.8508 169.568 93.7068 168.112 93.7068 166.512V164.496H79.8828V167.28C79.8828 173.616 81.5628 178.48 84.9228 181.872C88.2828 185.264 93.8668 186.96 101.675 186.96C109.163 186.96 115.003 185.296 119.195 182C123.403 178.704 125.499 173.44 125.499 166.208C125.499 164.096 125.323 162.176 124.939 160.448Z" fill="white"/>
<path d="M182.634 137.264C182.154 132.896 181.114 129.12 179.466 125.984C177.85 122.864 175.482 120.4 172.426 118.64C169.354 116.896 165.226 116 160.042 116C154.874 116 150.73 116.896 147.674 118.64C144.602 120.4 142.266 122.864 140.618 125.984C139.002 129.12 137.93 132.896 137.45 137.264C136.97 141.664 136.73 146.448 136.73 151.616C136.73 156.848 136.986 161.664 137.45 166C137.93 170.352 138.986 174.096 140.618 177.232C142.25 180.368 144.602 182.768 147.674 184.432C150.73 186.08 154.874 186.928 160.042 186.928C165.226 186.928 169.354 186.096 172.426 184.432C175.482 182.768 177.834 180.368 179.466 177.232C181.098 174.096 182.154 170.352 182.634 166C183.114 161.664 183.354 156.848 183.354 151.616C183.354 146.432 183.114 141.648 182.634 137.264ZM169.242 163.376C169.018 166.608 168.57 169.232 167.898 171.248C167.226 173.264 166.266 174.72 165.018 175.664C163.754 176.592 162.106 177.056 160.058 177.056C158.01 177.056 156.362 176.592 155.114 175.664C153.866 174.736 152.906 173.264 152.234 171.248C151.562 169.232 151.114 166.608 150.89 163.376C150.666 160.144 150.554 156.24 150.554 151.632C150.554 147.024 150.65 143.12 150.89 139.92C151.114 136.72 151.562 134.096 152.234 132.048C152.906 130 153.866 128.528 155.114 127.6C156.378 126.656 158.01 126.192 160.058 126.192C162.106 126.192 163.77 126.656 165.018 127.6C166.266 128.512 167.226 130 167.898 132.048C168.57 134.096 169.034 136.72 169.242 139.92C169.45 143.12 169.578 147.024 169.578 151.632C169.578 156.24 169.466 160.144 169.242 163.376Z" fill="white"/>
<path d="M230.153 117.344V164.304H229.945L213.241 117.344H197.305V185.888H209.977V137.888H210.185L227.081 185.888H242.825V117.344H230.153Z" fill="white"/>
</svg>
