<svg width="20" height="20" viewBox="0 0 20 20" fill="none" xmlns="http://www.w3.org/2000/svg">
<circle cx="10" cy="10" r="9.5" fill="#DFDFDF" stroke="#434343"/>
<path d="M7.77778 9.68784L11.3379 6.1278C11.4202 6.0454 11.5301 6 11.6473 6C11.7645 6 11.8745 6.0454 11.9568 6.1278L12.219 6.38992C12.3896 6.56071 12.3896 6.8383 12.219 7.00884L9.22947 9.99834L12.2223 12.9912C12.3046 13.0736 12.3501 13.1834 12.3501 13.3006C12.3501 13.4178 12.3046 13.5277 12.2223 13.6102L11.9601 13.8722C11.8777 13.9546 11.7679 14 11.6507 14C11.5335 14 11.4235 13.9546 11.3412 13.8722L7.77778 10.3089C7.69524 10.2262 7.64991 10.1159 7.65017 9.99854C7.64991 9.88075 7.69524 9.77044 7.77778 9.68784Z" fill="#434343"/>
</svg>
