<?xml version="1.0" encoding="iso-8859-1"?>
<!-- Generator: Adobe Illustrator 19.0.0, SVG Export Plug-In . SVG Version: 6.00 Build 0)  -->
<svg version="1.1" id="Capa_1" xmlns="http://www.w3.org/2000/svg" xmlns:xlink="http://www.w3.org/1999/xlink" x="0px" y="0px"
	 viewBox="0 0 512 512" style="enable-background:new 0 0 512 512;" xml:space="preserve">
<g>
	<g>
		<path d="M256,0C156.595,0,75.726,82.14,75.726,183.099v145.807C75.726,429.865,156.595,512,256,512
			c99.399,0,180.274-81.886,180.274-182.534V183.099C436.274,82.14,355.399,0,256,0z M402.366,329.466
			c0,81.954-65.656,148.627-146.366,148.627c-80.705,0-146.366-66.927-146.366-149.192V183.099
			c0-82.265,65.661-149.192,146.366-149.192c80.711,0,146.366,66.927,146.366,149.192V329.466z"/>
	</g>
</g>
<g>
	<g>
		<path d="M256,140.15c-9.364,0-16.954,7.59-16.954,16.954v59.338c0,9.364,7.59,16.954,16.954,16.954
			c9.364,0,16.954-7.59,16.954-16.954v-59.338C272.954,147.74,265.364,140.15,256,140.15z"/>
	</g>
</g>
<g>
</g>
<g>
</g>
<g>
</g>
<g>
</g>
<g>
</g>
<g>
</g>
<g>
</g>
<g>
</g>
<g>
</g>
<g>
</g>
<g>
</g>
<g>
</g>
<g>
</g>
<g>
</g>
<g>
</g>
</svg>
