<svg width="24" height="24" viewBox="0 0 24 24" fill="none" xmlns="http://www.w3.org/2000/svg">
<path d="M6.68421 21H10.3158C10.6936 21 11 20.5523 11 20C11 19.4477 10.6936 19 10.3158 19H6.68421C6.30634 19 6 19.4477 6 20C6 20.5523 6.30634 21 6.68421 21Z" fill="#434343"/>
<path d="M6.68421 15H10.3158C10.6936 15 11 14.5523 11 14C11 13.4477 10.6936 13 10.3158 13H6.68421C6.30634 13 6 13.4477 6 14C6 14.5523 6.30634 15 6.68421 15Z" fill="#434343"/>
<path d="M20.2824 6.79688C20.1928 6.79688 20.1034 6.80006 20.0144 6.80639C19.7462 5.95434 19.242 5.18564 18.5545 4.59436C17.6303 3.7995 16.4336 3.38011 15.2093 3.4252C14.0094 1.32938 11.7661 0 9.36471 0C6.34814 0 3.67882 2.06522 2.87751 4.96233C1.14136 5.73108 0 7.458 0 9.375C0 10.3659 0.299341 11.3183 0.865647 12.1291C1.32386 12.7853 1.92969 13.3114 2.63529 13.6716V23.2969C2.63529 23.6852 2.95134 24 3.34118 24H20.6588C21.0486 24 21.3647 23.6852 21.3647 23.2969V14.0418C22.9033 13.5762 24 12.15 24 10.5C24 8.45808 22.3322 6.79688 20.2824 6.79688V6.79688ZM19.9529 22.5938H4.04706V17.5807H19.9529V22.5938ZM19.9529 16.1693H4.04706V11.2031H19.9529V16.1693ZM21.3647 12.528V10.5C21.3647 10.1117 21.0486 9.79688 20.6588 9.79688H3.34118C2.95134 9.79688 2.63529 10.1117 2.63529 10.5V11.997C1.87035 11.3602 1.41176 10.4129 1.41176 9.375C1.41176 7.92305 2.33525 6.62503 3.70974 6.14512C3.94169 6.06412 4.11464 5.86884 4.16631 5.62955C4.69511 3.18239 6.88136 1.40625 9.36471 1.40625C11.3886 1.40625 13.273 2.60859 14.1654 4.46934C14.2983 4.74652 14.5964 4.90561 14.9018 4.86234C15.0619 4.83966 15.2256 4.82812 15.3882 4.82812C17.0921 4.82812 18.5194 6.04284 18.7821 7.71642C18.8132 7.91447 18.9277 8.08992 19.0968 8.19858C19.2658 8.30723 19.4735 8.33887 19.6674 8.28553C19.8663 8.23087 20.0732 8.20312 20.2824 8.20312C21.5538 8.20312 22.5882 9.23348 22.5882 10.5C22.5882 11.3696 22.0974 12.1392 21.3647 12.528V12.528Z" fill="#434343"/>
<path d="M14 15C14.5523 15 15 14.5523 15 14C15 13.4477 14.5523 13 14 13C13.4477 13 13 13.4477 13 14C13 14.5523 13.4477 15 14 15Z" fill="#434343"/>
<path d="M14 21C14.5523 21 15 20.5523 15 20C15 19.4477 14.5523 19 14 19C13.4477 19 13 19.4477 13 20C13 20.5523 13.4477 21 14 21Z" fill="#434343"/>
</svg>
