<svg id="Layer_1" data-name="Layer 1" xmlns="http://www.w3.org/2000/svg" viewBox="0 0 13 14"><defs><style>.cls-1,.cls-2{fill:none;}.cls-2,.cls-3{stroke:#333;stroke-miterlimit:10;stroke-width:0.5px;}.cls-3{fill:#fff;}.cls-4{fill:#333;}</style></defs><rect class="cls-1" y="0.66" width="12.99" height="12.99"/><ellipse class="cls-2" cx="4.38" cy="6.25" rx="3.48" ry="1.47"/><path class="cls-2" d="M.9,6.25v5.59s.28,1.47,3.48,1.47c0,0,3.18,0,3.49-1.46V6.25"/><path class="cls-2" d="M.9,8.59a6.45,6.45,0,0,0,7,0"/><path class="cls-2" d="M.9,10.42a6.45,6.45,0,0,0,7,0"/><circle class="cls-3" cx="8.74" cy="4.09" r="3.24"/><path class="cls-4" d="M8.92,4c.26-.19.49-.33.49-.7a.59.59,0,0,0-.64-.59A.71.71,0,0,0,8,3.42H7.25A1.41,1.41,0,0,1,8.77,2a1.29,1.29,0,0,1,1.45,1.26,1.18,1.18,0,0,1-.56,1c-.45.34-.63.4-.63.83H8.3A1.14,1.14,0,0,1,8.92,4ZM8.67,5.42a.48.48,0,1,1-.49.47A.47.47,0,0,1,8.67,5.42Z"/></svg>