<svg width="13" height="16" viewBox="0 0 13 16" fill="none" xmlns="http://www.w3.org/2000/svg">
<path d="M12.399 12.7329C12.3519 12.7024 11.998 12.4544 11.6435 11.7043C10.9926 10.3267 10.856 8.38612 10.856 7.00078C10.856 6.99475 10.8559 6.98878 10.8557 6.98278C10.8486 5.15188 9.75221 3.57356 8.18334 2.86541V1.78237C8.18334 0.799562 7.38509 0 6.4039 0H6.25643C5.27525 0 4.477 0.799562 4.477 1.78237V2.86534C2.90287 3.57578 1.80434 5.16216 1.80434 7.00078C1.80434 8.38612 1.66771 10.3267 1.01681 11.7043C0.662402 12.4544 0.308433 12.7023 0.26137 12.7329C0.063183 12.8246 -0.0345359 13.0365 0.0110579 13.2512C0.0570891 13.4681 0.259777 13.6176 0.48112 13.6176H3.91696C3.93615 14.9345 5.01096 16 6.33018 16C7.6494 16 8.72421 14.9345 8.7434 13.6176H12.1792C12.4006 13.6176 12.6033 13.4681 12.6493 13.2512C12.6948 13.0365 12.5972 12.8246 12.399 12.7329V12.7329ZM5.41453 1.78237C5.41453 1.31734 5.79221 0.939031 6.25646 0.939031H6.40393C6.86818 0.939031 7.24587 1.31734 7.24587 1.78237V2.56103C6.95 2.49988 6.64371 2.46769 6.33006 2.46769C6.0165 2.46769 5.71031 2.49984 5.41456 2.56094V1.78237H5.41453ZM6.33018 15.061C5.5279 15.061 4.8735 14.4167 4.85446 13.6176H7.80587C7.78687 14.4167 7.13246 15.061 6.33018 15.061V15.061ZM8.21768 12.6785C8.21759 12.6785 1.5494 12.6785 1.5494 12.6785C1.6305 12.5521 1.71303 12.409 1.79506 12.2473C2.42331 11.0085 2.74187 9.24328 2.74187 7.00078C2.74187 5.019 4.35153 3.40672 6.33003 3.40672C8.30853 3.40672 9.91818 5.019 9.91818 7.00234C9.91818 7.00812 9.91828 7.01388 9.9185 7.01963C9.92028 9.25313 10.2388 11.012 10.8653 12.2473C10.9473 12.4091 11.0299 12.5521 11.111 12.6785H8.21768Z" fill="white"/>
</svg>
