<svg width="16" height="16" viewBox="0 0 16 16" fill="none" xmlns="http://www.w3.org/2000/svg">
<circle cx="8" cy="8" r="7.5" stroke="black" stroke-opacity="0.7"/>
<mask id="path-2-inside-1" fill="white">
<path d="M12 7.99805C12 8.92347 11.6791 9.82026 11.092 10.5356C10.505 11.251 9.688 11.7406 8.78036 11.9212C7.87272 12.1017 6.93056 11.962 6.11441 11.5257C5.29827 11.0895 4.65863 10.3838 4.30448 9.52878C3.95034 8.67381 3.9036 7.72248 4.17224 6.83691C4.44087 5.95134 5.00826 5.18631 5.77772 4.67217C6.54718 4.15803 7.4711 3.9266 8.39206 4.01731C9.31303 4.10801 10.1741 4.51525 10.8284 5.16962L10.1981 5.7999C9.68959 5.29135 9.02044 4.97486 8.3047 4.90437C7.58896 4.83387 6.87092 5.01373 6.27293 5.4133C5.67493 5.81287 5.23398 6.40742 5.02521 7.09566C4.81644 7.78389 4.85276 8.52322 5.12798 9.18768C5.40321 9.85213 5.90031 10.4006 6.53459 10.7396C7.16887 11.0787 7.90109 11.1873 8.60647 11.047C9.31185 10.9067 9.94676 10.5261 10.403 9.97015C10.8593 9.4142 11.1086 8.71725 11.1086 7.99805H12Z"/>
</mask>
<path d="M12 7.99805C12 8.92347 11.6791 9.82026 11.092 10.5356C10.505 11.251 9.688 11.7406 8.78036 11.9212C7.87272 12.1017 6.93056 11.962 6.11441 11.5257C5.29827 11.0895 4.65863 10.3838 4.30448 9.52878C3.95034 8.67381 3.9036 7.72248 4.17224 6.83691C4.44087 5.95134 5.00826 5.18631 5.77772 4.67217C6.54718 4.15803 7.4711 3.9266 8.39206 4.01731C9.31303 4.10801 10.1741 4.51525 10.8284 5.16962L10.1981 5.7999C9.68959 5.29135 9.02044 4.97486 8.3047 4.90437C7.58896 4.83387 6.87092 5.01373 6.27293 5.4133C5.67493 5.81287 5.23398 6.40742 5.02521 7.09566C4.81644 7.78389 4.85276 8.52322 5.12798 9.18768C5.40321 9.85213 5.90031 10.4006 6.53459 10.7396C7.16887 11.0787 7.90109 11.1873 8.60647 11.047C9.31185 10.9067 9.94676 10.5261 10.403 9.97015C10.8593 9.4142 11.1086 8.71725 11.1086 7.99805H12Z" stroke="#434343" stroke-width="2" mask="url(#path-2-inside-1)"/>
<path d="M11.6041 6.67535L8.77166 6.07784L10.7053 3.92367L11.6041 6.67535Z" fill="#434343"/>
</svg>
