<svg width="20" height="20" viewBox="0 0 20 20" fill="none" xmlns="http://www.w3.org/2000/svg">
<circle cx="10" cy="10" r="9.5" fill="#DFDFDF" stroke="#434343"/>
<path d="M12.2222 10.3122L8.66212 13.8722C8.57978 13.9546 8.46986 14 8.35266 14C8.23546 14 8.12554 13.9546 8.0432 13.8722L7.78102 13.6101C7.61042 13.4393 7.61042 13.1617 7.78102 12.9912L10.7705 10.0017L7.77771 7.00884C7.69537 6.92643 7.6499 6.81658 7.6499 6.69944C7.6499 6.58217 7.69537 6.47232 7.77771 6.38985L8.03988 6.1278C8.12229 6.0454 8.23214 6 8.34934 6C8.46655 6 8.57646 6.0454 8.6588 6.1278L12.2222 9.69109C12.3048 9.77376 12.3501 9.88413 12.3498 10.0015C12.3501 10.1193 12.3048 10.2296 12.2222 10.3122Z" fill="#434343"/>
</svg>
