<svg id="Layer_1" data-name="Layer 1" xmlns="http://www.w3.org/2000/svg" viewBox="0 0 13 14"><defs><style>.cls-1,.cls-3{fill:none;}.cls-2{fill:#010101;}.cls-3{stroke:#010101;stroke-width:0.5px;}</style></defs><rect class="cls-1" x="-0.41" y="0.66" width="12.99" height="12.99"/><path class="cls-2" d="M12.66,4.25,10.73,2.33a.23.23,0,0,0-.17-.07H2.37A.72.72,0,0,0,1.65,3v9.63a.72.72,0,0,0,.72.72H12a.73.73,0,0,0,.73-.72V4.42A.28.28,0,0,0,12.66,4.25ZM7.43,2.74h1V4.66h-1Zm-2.89,0H7V4.91a.24.24,0,0,0,.24.24H8.63a.24.24,0,0,0,.24-.24V2.74h1V6.11H4.54Zm5.78,10.11H4.06V8h6.26Zm1.92-.24a.24.24,0,0,1-.24.24H10.8V7.79a.24.24,0,0,0-.24-.24H3.82a.24.24,0,0,0-.24.24v5.06H2.37a.24.24,0,0,1-.24-.24V3a.24.24,0,0,1,.24-.24H4.06V6.35a.24.24,0,0,0,.24.24h5.78a.24.24,0,0,0,.24-.24V2.74h.14l1.78,1.78Z"/><path class="cls-3" d="M10.06,2.47V.7H.73V11.49h.92"/></svg>