<svg width="512" height="512" viewBox="0 0 512 512" fill="none" xmlns="http://www.w3.org/2000/svg">
<g clip-path="url(#clip0)">
<path d="M497.331 250.078C489.182 250.078 482.662 256.598 482.662 264.747V398.18C482.662 434.472 453.107 463.919 416.924 463.919H95.0764C58.7844 463.919 29.3379 434.363 29.3379 398.18V262.574C29.3379 254.424 22.8183 247.905 14.6689 247.905C6.51952 247.905 0 254.424 0 262.574V398.18C0 450.662 42.7029 493.256 95.0764 493.256H416.924C469.406 493.256 512 450.553 512 398.18V264.747C512 256.706 505.48 250.078 497.331 250.078Z" fill="#E65A14"/>
<path d="M173.093 137.073L241.331 68.8353V366.452C241.331 374.601 247.85 381.121 256 381.121C264.149 381.121 270.669 374.601 270.669 366.452V68.8353L338.906 137.073C341.732 139.898 345.535 141.419 349.229 141.419C353.032 141.419 356.727 140.007 359.552 137.073C365.311 131.314 365.311 122.078 359.552 116.319L266.322 23.09C263.606 20.3735 259.803 18.7437 256 18.7437C252.088 18.7437 248.394 20.2649 245.677 23.09L152.448 116.319C146.689 122.078 146.689 131.314 152.448 137.073C158.098 142.723 167.443 142.723 173.093 137.073Z" fill="#E65A14"/>
</g>
<defs>
<clipPath id="clip0">
<rect width="512" height="512" fill="white"/>
</clipPath>
</defs>
</svg>
