<svg width="17" height="16" viewBox="0 0 17 16" fill="none" xmlns="http://www.w3.org/2000/svg">
<path d="M12.8633 4.4707L10.0405 5.07505L11.9753 7.21748L12.8633 4.4707ZM4.52845 11.9977L7.35123 11.3933L5.41646 9.25089L4.52845 11.9977ZM11.0257 5.79331C11.0231 5.79565 11.0205 5.79799 11.0179 5.80034C11.0153 5.80268 11.0127 5.80503 11.0101 5.80737C11.0075 5.80972 11.0049 5.81207 11.0023 5.81442C10.9997 5.81677 10.9971 5.81913 10.9945 5.82148C10.9919 5.82384 10.9893 5.8262 10.9867 5.82856C10.9841 5.83092 10.9814 5.83328 10.9788 5.83564C10.9762 5.83801 10.9736 5.84037 10.971 5.84274C10.9683 5.84511 10.9657 5.84748 10.9631 5.84985C10.9605 5.85222 10.9578 5.8546 10.9552 5.85697C10.9526 5.85935 10.9499 5.86173 10.9473 5.86411C10.9447 5.86649 10.942 5.86887 10.9394 5.87125C10.9368 5.87364 10.9341 5.87602 10.9315 5.87841C10.9288 5.8808 10.9262 5.88319 10.9235 5.88558C10.9209 5.88797 10.9182 5.89037 10.9156 5.89276C10.9129 5.89516 10.9103 5.89755 10.9076 5.89995C10.905 5.90235 10.9023 5.90476 10.8996 5.90716C10.897 5.90956 10.8943 5.91197 10.8916 5.91438C10.889 5.91678 10.8863 5.91919 10.8836 5.9216C10.881 5.92401 10.8783 5.92643 10.8756 5.92884C10.873 5.93126 10.8703 5.93368 10.8676 5.93609C10.8649 5.93851 10.8622 5.94093 10.8596 5.94336C10.8569 5.94578 10.8542 5.94821 10.8515 5.95063C10.8488 5.95306 10.8461 5.95549 10.8434 5.95792C10.8407 5.96035 10.838 5.96278 10.8354 5.96522C10.8327 5.96765 10.83 5.97009 10.8273 5.97252C10.8246 5.97496 10.8219 5.9774 10.8192 5.97985C10.8164 5.98229 10.8137 5.98473 10.811 5.98718C10.8083 5.98962 10.8056 5.99207 10.8029 5.99452C10.8002 5.99697 10.7975 5.99942 10.7948 6.00188C10.792 6.00433 10.7893 6.00678 10.7866 6.00924C10.7839 6.0117 10.7812 6.01416 10.7784 6.01662C10.7757 6.01908 10.773 6.02154 10.7703 6.02401C10.7675 6.02647 10.7648 6.02894 10.7621 6.03141C10.7593 6.03387 10.7566 6.03635 10.7539 6.03882C10.7511 6.04129 10.7484 6.04376 10.7456 6.04624C10.7429 6.04871 10.7401 6.05119 10.7374 6.05367C10.7347 6.05615 10.7319 6.05863 10.7292 6.06112C10.7264 6.0636 10.7237 6.06609 10.7209 6.06857C10.7181 6.07106 10.7154 6.07355 10.7126 6.07604C10.7099 6.07853 10.7071 6.08102 10.7044 6.08352C10.7016 6.08601 10.6988 6.08851 10.6961 6.091C10.6933 6.0935 10.6905 6.096 10.6878 6.0985C10.685 6.101 10.6822 6.10351 10.6794 6.10601C10.6767 6.10852 10.6739 6.11103 10.6711 6.11353C10.6683 6.11604 10.6656 6.11855 10.6628 6.12107C10.66 6.12358 10.6572 6.12609 10.6544 6.12861C10.6516 6.13113 10.6488 6.13364 10.6461 6.13616C10.6433 6.13868 10.6405 6.1412 10.6377 6.14373C10.6349 6.14625 10.6321 6.14878 10.6293 6.1513C10.6265 6.15383 10.6237 6.15636 10.6209 6.15889C10.6181 6.16142 10.6153 6.16395 10.6125 6.16648C10.6097 6.16902 10.6069 6.17155 10.6041 6.17409C10.6012 6.17663 10.5984 6.17917 10.5956 6.18171C10.5928 6.18425 10.59 6.18679 10.5872 6.18934C10.5844 6.19188 10.5815 6.19443 10.5787 6.19698C10.5759 6.19952 10.5731 6.20207 10.5702 6.20463C10.5674 6.20718 10.5646 6.20973 10.5618 6.21229C10.5589 6.21484 10.5561 6.2174 10.5533 6.21996C10.5504 6.22252 10.5476 6.22508 10.5448 6.22764C10.5419 6.2302 10.5391 6.23276 10.5362 6.23533C10.5334 6.23789 10.5306 6.24046 10.5277 6.24303C10.5249 6.2456 10.522 6.24817 10.5192 6.25074C10.5163 6.25331 10.5135 6.25589 10.5106 6.25846C10.5078 6.26104 10.5049 6.26362 10.5021 6.2662C10.4992 6.26878 10.4964 6.27136 10.4935 6.27394C10.4906 6.27652 10.4878 6.27911 10.4849 6.28169C10.482 6.28428 10.4792 6.28687 10.4763 6.28946C10.4734 6.29205 10.4706 6.29464 10.4677 6.29723C10.4648 6.29982 10.462 6.30242 10.4591 6.30501C10.4562 6.30761 10.4533 6.31021 10.4505 6.31281C10.4476 6.31541 10.4447 6.31801 10.4418 6.32061C10.4389 6.32321 10.436 6.32582 10.4332 6.32842C10.4303 6.33103 10.4274 6.33364 10.4245 6.33625C10.4216 6.33886 10.4187 6.34147 10.4158 6.34408C10.4129 6.34669 10.41 6.34931 10.4071 6.35192C10.4042 6.35454 10.4013 6.35716 10.3984 6.35978C10.3955 6.3624 10.3926 6.36502 10.3897 6.36764C10.3868 6.37026 10.3839 6.37289 10.381 6.37551C10.3781 6.37814 10.3752 6.38077 10.3723 6.3834C10.3694 6.38603 10.3665 6.38866 10.3635 6.39129C10.3606 6.39392 10.3577 6.39656 10.3548 6.39919C10.3519 6.40183 10.349 6.40447 10.346 6.4071C10.3431 6.40974 10.3402 6.41238 10.3373 6.41503C10.3343 6.41767 10.3314 6.42031 10.3285 6.42296C10.3256 6.4256 10.3226 6.42825 10.3197 6.4309C10.3168 6.43355 10.3138 6.4362 10.3109 6.43885C10.3079 6.4415 10.305 6.44416 10.3021 6.44681C10.2991 6.44947 10.2962 6.45212 10.2932 6.45478C10.2903 6.45744 10.2874 6.4601 10.2844 6.46276C10.2815 6.46542 10.2785 6.46808 10.2756 6.47075C10.2726 6.47341 10.2697 6.47608 10.2667 6.47875C10.2637 6.48142 10.2608 6.48409 10.2578 6.48676C10.2549 6.48943 10.2519 6.4921 10.249 6.49477C10.246 6.49745 10.243 6.50012 10.2401 6.5028C10.2371 6.50548 10.2341 6.50816 10.2312 6.51084C10.2282 6.51352 10.2252 6.5162 10.2223 6.51888C10.2193 6.52156 10.2163 6.52425 10.2133 6.52694C10.2104 6.52962 10.2074 6.53231 10.2044 6.535C10.2014 6.53769 10.1985 6.54038 10.1955 6.54307C10.1925 6.54577 10.1895 6.54846 10.1865 6.55115C10.1835 6.55385 10.1806 6.55655 10.1776 6.55925C10.1746 6.56194 10.1716 6.56464 10.1686 6.56735C10.1656 6.57005 10.1626 6.57275 10.1596 6.57546C10.1566 6.57816 10.1536 6.58087 10.1506 6.58357C10.1476 6.58628 10.1446 6.58899 10.1416 6.5917C10.1386 6.59441 10.1356 6.59713 10.1326 6.59984C10.1296 6.60255 10.1266 6.60527 10.1236 6.60798C10.1206 6.6107 10.1176 6.61342 10.1146 6.61614C10.1116 6.61886 10.1085 6.62158 10.1055 6.6243C10.1025 6.62703 10.0995 6.62975 10.0965 6.63248C10.0935 6.6352 10.0904 6.63793 10.0874 6.64066C10.0844 6.64338 10.0814 6.64611 10.0783 6.64885C10.0753 6.65158 10.0723 6.65431 10.0693 6.65705C10.0662 6.65978 10.0632 6.66252 10.0602 6.66525C10.0571 6.66799 10.0541 6.67073 10.0511 6.67347C10.048 6.67621 10.045 6.67895 10.042 6.68169C10.0389 6.68444 10.0359 6.68718 10.0329 6.68993C10.0298 6.69267 10.0268 6.69542 10.0237 6.69817C10.0207 6.70092 10.0176 6.70367 10.0146 6.70642C10.0115 6.70917 10.0085 6.71193 10.0054 6.71468C10.0024 6.71743 9.99935 6.72019 9.99629 6.72295C9.99324 6.72571 9.99018 6.72846 9.98713 6.73122C9.98407 6.73398 9.98101 6.73675 9.97795 6.73951C9.97489 6.74227 9.97183 6.74504 9.96877 6.7478C9.96571 6.75057 9.96264 6.75334 9.95958 6.7561C9.95651 6.75887 9.95344 6.76164 9.95037 6.76441C9.94731 6.76719 9.94423 6.76996 9.94116 6.77273C9.93809 6.77551 9.93502 6.77828 9.93194 6.78106C9.92887 6.78384 9.92579 6.78662 9.92271 6.7894C9.91963 6.79217 9.91655 6.79496 9.91347 6.79774C9.91039 6.80052 9.90731 6.80331 9.90423 6.80609C9.90114 6.80888 9.89806 6.81166 9.89497 6.81445C9.89188 6.81724 9.88879 6.82003 9.8857 6.82282C9.88261 6.82561 9.87952 6.8284 9.87643 6.83119C9.87333 6.83399 9.87024 6.83678 9.86714 6.83958C9.86405 6.84238 9.86095 6.84517 9.85785 6.84797C9.85475 6.85077 9.85165 6.85357 9.84855 6.85637C9.84545 6.85917 9.84234 6.86198 9.83924 6.86478C9.83613 6.86758 9.83302 6.87039 9.82992 6.8732C9.82681 6.876 9.8237 6.87881 9.82059 6.88162C9.81748 6.88443 9.81436 6.88724 9.81125 6.89005C9.80814 6.89287 9.80502 6.89568 9.8019 6.89849C9.79879 6.90131 9.79567 6.90412 9.79255 6.90694C9.78943 6.90976 9.78631 6.91258 9.78319 6.9154C9.78006 6.91822 9.77694 6.92104 9.77381 6.92386C9.77069 6.92668 9.76756 6.92951 9.76443 6.93233C9.7613 6.93516 9.75818 6.93798 9.75504 6.94081C9.75191 6.94364 9.74878 6.94647 9.74565 6.9493C9.74251 6.95213 9.73938 6.95496 9.73624 6.95779C9.7331 6.96063 9.72996 6.96346 9.72682 6.9663C9.72368 6.96913 9.72054 6.97197 9.7174 6.97481C9.71426 6.97764 9.71111 6.98048 9.70797 6.98332C9.70482 6.98616 9.70168 6.98901 9.69853 6.99185C9.69538 6.99469 9.69223 6.99754 9.68908 7.00038C9.68593 7.00323 9.68278 7.00607 9.67962 7.00892C9.67647 7.01177 9.67332 7.01462 9.67016 7.01747C9.667 7.02032 9.66385 7.02317 9.66069 7.02602C9.65753 7.02888 9.65437 7.03173 9.6512 7.03459C9.64804 7.03744 9.64488 7.0403 9.64171 7.04316C9.63855 7.04601 9.63538 7.04887 9.63222 7.05173C9.62905 7.05459 9.62588 7.05746 9.62271 7.06032C9.61954 7.06318 9.61637 7.06605 9.6132 7.06891C9.61002 7.07178 9.60685 7.07464 9.60367 7.07751C9.6005 7.08038 9.59732 7.08325 9.59414 7.08612C9.59097 7.08899 9.58779 7.09186 9.58461 7.09473C9.58143 7.0976 9.57824 7.10048 9.57506 7.10335C9.57188 7.10622 9.56869 7.1091 9.56551 7.11198C9.56232 7.11486 9.55913 7.11773 9.55595 7.12061C9.55276 7.12349 9.54957 7.12637 9.54638 7.12925C9.54318 7.13214 9.53999 7.13502 9.5368 7.1379C9.5336 7.14079 9.53041 7.14367 9.52721 7.14656C9.52402 7.14945 9.52082 7.15233 9.51762 7.15522C9.51442 7.15811 9.51122 7.161 9.50802 7.16389C9.50482 7.16678 9.50162 7.16968 9.49841 7.17257C9.49521 7.17546 9.492 7.17836 9.4888 7.18125C9.48559 7.18415 9.48238 7.18705 9.47917 7.18994C9.47596 7.19284 9.47275 7.19574 9.46954 7.19864C9.46633 7.20154 9.46312 7.20444 9.4599 7.20735C9.45669 7.21025 9.45347 7.21315 9.45026 7.21606C9.44704 7.21896 9.44382 7.22187 9.4406 7.22477C9.43738 7.22768 9.43416 7.23059 9.43094 7.2335C9.42772 7.23641 9.4245 7.23932 9.42127 7.24223C9.41805 7.24514 9.41483 7.24805 9.4116 7.25097C9.40837 7.25388 9.40514 7.2568 9.40192 7.25971C9.39869 7.26263 9.39546 7.26555 9.39222 7.26846C9.38899 7.27138 9.38576 7.2743 9.38253 7.27722C9.37929 7.28014 9.37606 7.28306 9.37282 7.28599C9.36959 7.28891 9.36635 7.29183 9.36311 7.29476C9.35987 7.29768 9.35663 7.30061 9.35339 7.30353C9.35015 7.30646 9.34691 7.30939 9.34367 7.31232C9.34042 7.31525 9.33718 7.31818 9.33393 7.32111C9.33069 7.32404 9.32744 7.32697 9.32419 7.3299C9.32094 7.33284 9.31769 7.33577 9.31444 7.33871C9.31119 7.34164 9.30794 7.34458 9.30469 7.34752C9.30144 7.35045 9.29818 7.35339 9.29493 7.35633C9.29167 7.35927 9.28842 7.36221 9.28516 7.36515C9.2819 7.36809 9.27864 7.37104 9.27538 7.37398C9.27213 7.37692 9.26886 7.37987 9.2656 7.38281C9.26234 7.38576 9.25908 7.38871 9.25581 7.39165C9.25255 7.3946 9.24928 7.39755 9.24602 7.4005C9.24275 7.40345 9.23948 7.4064 9.23622 7.40935C9.23295 7.4123 9.22968 7.41526 9.22641 7.41821C9.22314 7.42116 9.21986 7.42412 9.21659 7.42707C9.21332 7.43003 9.21004 7.43299 9.20677 7.43595C9.20349 7.4389 9.20022 7.44186 9.19694 7.44482C9.19366 7.44778 9.19038 7.45074 9.1871 7.4537C9.18382 7.45667 9.18054 7.45963 9.17726 7.46259C9.17398 7.46556 9.1707 7.46852 9.16741 7.47149C9.16413 7.47445 9.16084 7.47742 9.15756 7.48039C9.15427 7.48335 9.15098 7.48632 9.1477 7.48929C9.14441 7.49226 9.14112 7.49523 9.13783 7.4982C9.13454 7.50118 9.13125 7.50415 9.12795 7.50712C9.12466 7.51009 9.12137 7.51307 9.11807 7.51604C9.11478 7.51902 9.11148 7.522 9.10818 7.52497C9.10489 7.52795 9.10159 7.53093 9.09829 7.53391C9.09499 7.53689 9.09169 7.53987 9.08839 7.54285C9.08509 7.54583 9.08179 7.54881 9.07849 7.55179C9.07518 7.55478 9.07188 7.55776 9.06857 7.56074C9.06527 7.56373 9.06196 7.56672 9.05866 7.5697C9.05535 7.57269 9.05204 7.57568 9.04873 7.57866C9.04542 7.58165 9.04211 7.58464 9.0388 7.58763C9.03549 7.59062 9.03218 7.59361 9.02886 7.59661C9.02555 7.5996 9.02224 7.60259 9.01892 7.60558C9.01561 7.60858 9.01229 7.61157 9.00897 7.61457C9.00566 7.61756 9.00234 7.62056 8.99902 7.62356C8.9957 7.62656 8.99238 7.62955 8.98906 7.63255C8.98574 7.63555 8.98242 7.63855 8.97909 7.64155C8.97577 7.64455 8.97245 7.64756 8.96912 7.65056C8.9658 7.65356 8.96247 7.65656 8.95914 7.65957C8.95582 7.66257 8.95249 7.66558 8.94916 7.66859C8.94583 7.67159 8.9425 7.6746 8.93917 7.67761C8.93584 7.68061 8.93251 7.68362 8.92917 7.68663C8.92584 7.68964 8.92251 7.69265 8.91917 7.69566C8.91584 7.69868 8.9125 7.70169 8.90917 7.7047C8.90583 7.70771 8.90249 7.71073 8.89916 7.71374C8.89582 7.71676 8.89248 7.71977 8.88914 7.72279C8.8858 7.7258 8.88246 7.72882 8.87911 7.73184C8.87577 7.73486 8.87243 7.73788 8.86909 7.7409C8.86574 7.74392 8.8624 7.74694 8.85905 7.74996C8.85571 7.75298 8.85236 7.756 8.84901 7.75902C8.84567 7.76205 8.84232 7.76507 8.83897 7.7681C8.83562 7.77112 8.83227 7.77415 8.82892 7.77717C8.82557 7.7802 8.82221 7.78323 8.81886 7.78625C8.81551 7.78928 8.81216 7.79231 8.8088 7.79534C8.80545 7.79837 8.80209 7.8014 8.79873 7.80443C8.79538 7.80746 8.79202 7.81049 8.78866 7.81352C8.78531 7.81656 8.78195 7.81959 8.77859 7.82262C8.77523 7.82566 8.77187 7.82869 8.7685 7.83173C8.76514 7.83476 8.76178 7.8378 8.75842 7.84084C8.75505 7.84388 8.75169 7.84691 8.74833 7.84995C8.74496 7.85299 8.7416 7.85603 8.73823 7.85907C8.73486 7.86211 8.73149 7.86515 8.72813 7.86819C8.72476 7.87123 8.72139 7.87428 8.71802 7.87732C8.71465 7.88036 8.71128 7.88341 8.70791 7.88645C8.70454 7.8895 8.70116 7.89254 8.69779 7.89559C8.69442 7.89864 8.69104 7.90168 8.68767 7.90473C8.68429 7.90778 8.68092 7.91083 8.67754 7.91388C8.67417 7.91692 8.67079 7.91997 8.66741 7.92302C8.66403 7.92607 8.66065 7.92913 8.65727 7.93218C8.65389 7.93523 8.65051 7.93828 8.64713 7.94134C8.64375 7.94439 8.64037 7.94744 8.63699 7.9505C8.6336 7.95355 8.63022 7.95661 8.62684 7.95967C8.62345 7.96272 8.62007 7.96578 8.61668 7.96884C8.6133 7.97189 8.60991 7.97495 8.60652 7.97801C8.60313 7.98107 8.59975 7.98413 8.59636 7.98719C8.59297 7.99025 8.58958 7.99331 8.58619 7.99637C8.5828 7.99944 8.57941 8.0025 8.57601 8.00556C8.57262 8.00862 8.56923 8.01169 8.56584 8.01475C8.56244 8.01782 8.55905 8.02088 8.55565 8.02395C8.55226 8.02701 8.54886 8.03008 8.54547 8.03315C8.54207 8.03622 8.53867 8.03928 8.53528 8.04235C8.53188 8.04542 8.52848 8.04849 8.52508 8.05156C8.52168 8.05463 8.51828 8.0577 8.51488 8.06077C8.51148 8.06384 8.50808 8.06691 8.50468 8.06999C8.50127 8.07306 8.49787 8.07613 8.49447 8.0792C8.49106 8.08228 8.48766 8.08535 8.48425 8.08843C8.48085 8.0915 8.47744 8.09458 8.47404 8.09765C8.47063 8.10073 8.46722 8.10381 8.46382 8.10688C8.46041 8.10996 8.457 8.11304 8.45359 8.11612C8.45018 8.1192 8.44677 8.12228 8.44336 8.12536C8.43995 8.12844 8.43654 8.13152 8.43313 8.1346C8.42972 8.13768 8.4263 8.14076 8.42289 8.14384C8.41948 8.14692 8.41606 8.15001 8.41265 8.15309C8.40924 8.15617 8.40582 8.15926 8.4024 8.16234C8.39899 8.16543 8.39557 8.16851 8.39216 8.1716C8.38874 8.17469 8.38532 8.17777 8.3819 8.18086C8.37848 8.18395 8.37507 8.18703 8.37165 8.19012C8.36823 8.19321 8.36481 8.1963 8.36138 8.19939C8.35796 8.20248 8.35454 8.20557 8.35112 8.20866C8.3477 8.21175 8.34428 8.21484 8.34085 8.21793C8.33743 8.22102 8.334 8.22411 8.33058 8.22721C8.32716 8.2303 8.32373 8.23339 8.3203 8.23649C8.31688 8.23958 8.31345 8.24267 8.31003 8.24577C8.3066 8.24886 8.30317 8.25196 8.29974 8.25506C8.29631 8.25815 8.29289 8.26125 8.28946 8.26434C8.28603 8.26744 8.2826 8.27054 8.27917 8.27364C8.27573 8.27674 8.2723 8.27983 8.26887 8.28293C8.26544 8.28603 8.26201 8.28913 8.25858 8.29223C8.25514 8.29533 8.25171 8.29843 8.24827 8.30153C8.24484 8.30464 8.24141 8.30774 8.23797 8.31084C8.23454 8.31394 8.2311 8.31704 8.22766 8.32015C8.22423 8.32325 8.22079 8.32635 8.21735 8.32946C8.21392 8.33256 8.21048 8.33567 8.20704 8.33877C8.2036 8.34188 8.20016 8.34498 8.19672 8.34809C8.19328 8.3512 8.18984 8.3543 8.1864 8.35741C8.18296 8.36052 8.17952 8.36363 8.17608 8.36673C8.17264 8.36984 8.16919 8.37295 8.16575 8.37606C8.16231 8.37917 8.15886 8.38228 8.15542 8.38539C8.15198 8.3885 8.14853 8.39161 8.14509 8.39472C8.14164 8.39783 8.1382 8.40094 8.13475 8.40405C8.13131 8.40717 8.12786 8.41028 8.12441 8.41339C8.12097 8.4165 8.11752 8.41962 8.11407 8.42273C8.11062 8.42584 8.10717 8.42896 8.10373 8.43207C8.10028 8.43519 8.09683 8.4383 8.09338 8.44142C8.08993 8.44453 8.08648 8.44765 8.08303 8.45077C8.07958 8.45388 8.07612 8.457 8.07267 8.46012C8.06922 8.46323 8.06577 8.46635 8.06232 8.46947C8.05886 8.47259 8.05541 8.47571 8.05196 8.47882C8.0485 8.48194 8.04505 8.48506 8.04159 8.48818C8.03814 8.4913 8.03468 8.49442 8.03123 8.49754C8.02777 8.50066 8.02432 8.50378 8.02086 8.50691C8.0174 8.51003 8.01395 8.51315 8.01049 8.51627C8.00703 8.51939 8.00358 8.52252 8.00012 8.52564C7.99666 8.52876 7.9932 8.53188 7.98974 8.53501C7.98628 8.53813 7.98282 8.54126 7.97936 8.54438C7.9759 8.5475 7.97244 8.55063 7.96898 8.55375C7.96552 8.55688 7.96206 8.56001 7.9586 8.56313C7.95514 8.56626 7.95168 8.56938 7.94821 8.57251C7.94475 8.57564 7.94129 8.57876 7.93783 8.58189C7.93436 8.58502 7.9309 8.58815 7.92744 8.59128C7.92397 8.5944 7.92051 8.59753 7.91704 8.60066C7.91358 8.60379 7.91011 8.60692 7.90665 8.61005C7.90318 8.61318 7.89972 8.61631 7.89625 8.61944C7.89278 8.62257 7.88932 8.6257 7.88585 8.62883C7.88238 8.63196 7.87892 8.63509 7.87545 8.63822C7.87198 8.64135 7.86851 8.64449 7.86504 8.64762C7.86158 8.65075 7.85811 8.65388 7.85464 8.65702C7.85117 8.66015 7.8477 8.66328 7.84423 8.66642C7.84076 8.66955 7.83729 8.67268 7.83382 8.67582C7.83035 8.67895 7.82688 8.68209 7.82341 8.68522C7.81994 8.68836 7.81646 8.69149 7.81299 8.69463C7.80952 8.69776 7.80605 8.7009 7.80258 8.70403C7.7991 8.70717 7.79563 8.71031 7.79216 8.71344C7.78868 8.71658 7.78521 8.71972 7.78174 8.72285C7.77826 8.72599 7.77479 8.72913 7.77131 8.73226C7.76784 8.7354 7.76436 8.73854 7.76089 8.74168C7.75741 8.74482 7.75394 8.74796 7.75046 8.75109C7.74699 8.75423 7.74351 8.75737 7.74004 8.76051C7.73656 8.76365 7.73308 8.76679 7.72961 8.76993C7.72613 8.77307 7.72265 8.77621 7.71918 8.77935C7.7157 8.78249 7.71222 8.78563 7.70874 8.78877C7.70526 8.79191 7.70179 8.79505 7.69831 8.79819C7.69483 8.80134 7.69135 8.80448 7.68787 8.80762C7.68439 8.81076 7.68091 8.8139 7.67743 8.81705C7.67395 8.82019 7.67047 8.82333 7.66699 8.82647C7.66351 8.82962 7.66003 8.83276 7.65655 8.8359C7.65307 8.83905 7.64959 8.84219 7.64611 8.84533C7.64263 8.84848 7.63915 8.85162 7.63567 8.85476C7.63218 8.85791 7.6287 8.86105 7.62522 8.8642C7.62174 8.86734 7.61826 8.87049 7.61477 8.87363C7.61129 8.87678 7.60781 8.87992 7.60433 8.88307C7.60084 8.88621 7.59736 8.88936 7.59388 8.8925C7.59039 8.89565 7.58691 8.89879 7.58343 8.90194C7.57994 8.90509 7.57646 8.90823 7.57297 8.91138C7.56949 8.91453 7.56601 8.91767 7.56252 8.92082C7.55904 8.92397 7.55555 8.92711 7.55207 8.93026C7.54858 8.93341 7.5451 8.93655 7.54161 8.9397C7.53813 8.94285 7.53464 8.946 7.53116 8.94915C7.52767 8.95229 7.52418 8.95544 7.5207 8.95859C7.51721 8.96174 7.51373 8.96489 7.51024 8.96803C7.50675 8.97118 7.50327 8.97433 7.49978 8.97748C7.49629 8.98063 7.49281 8.98378 7.48932 8.98693C7.48583 8.99008 7.48234 8.99322 7.47886 8.99637C7.47537 8.99952 7.47188 9.00267 7.46839 9.00582C7.46491 9.00897 7.46142 9.01212 7.45793 9.01527C7.45444 9.01842 7.45096 9.02157 7.44747 9.02472C7.44398 9.02787 7.44049 9.03102 7.437 9.03417C7.43351 9.03732 7.43003 9.04047 7.42654 9.04362C7.42305 9.04677 7.41956 9.04992 7.41607 9.05308C7.41258 9.05623 7.40909 9.05938 7.4056 9.06253C7.40211 9.06568 7.39862 9.06883 7.39513 9.07198C7.39165 9.07513 7.38816 9.07828 7.38467 9.08144C7.38118 9.08459 7.37769 9.08774 7.3742 9.09089C7.37071 9.09404 7.36722 9.09719 7.36373 9.10035C7.36024 9.1035 7.35675 9.10665 7.35326 9.1098C7.34977 9.11295 7.34628 9.1161 7.34279 9.11926C7.3393 9.12241 7.33581 9.12556 7.33231 9.12871C7.32882 9.13186 7.32533 9.13502 7.32184 9.13817C7.31835 9.14132 7.31486 9.14447 7.31137 9.14763C7.30788 9.15078 7.30439 9.15393 7.3009 9.15708C7.29741 9.16024 7.29392 9.16339 7.29043 9.16654C7.28693 9.16969 7.28344 9.17285 7.27995 9.176C7.27646 9.17915 7.27297 9.1823 7.26948 9.18546C7.26599 9.18861 7.2625 9.19176 7.25901 9.19492C7.25551 9.19807 7.25202 9.20122 7.24853 9.20437C7.24504 9.20753 7.24155 9.21068 7.23806 9.21383C7.23457 9.21699 7.23108 9.22014 7.22758 9.22329C7.22409 9.22645 7.2206 9.2296 7.21711 9.23275C7.21362 9.2359 7.21013 9.23906 7.20664 9.24221C7.20314 9.24536 7.19965 9.24852 7.19616 9.25167C7.19267 9.25482 7.18918 9.25798 7.18569 9.26113C7.1822 9.26428 7.1787 9.26743 7.17521 9.27059C7.17172 9.27374 7.16823 9.27689 7.16474 9.28005C7.16125 9.2832 7.15776 9.28635 7.15426 9.28951C7.15077 9.29266 7.14728 9.29581 7.14379 9.29896C7.1403 9.30212 7.13681 9.30527 7.13332 9.30842C7.12983 9.31158 7.12633 9.31473 7.12284 9.31788C7.11935 9.32103 7.11586 9.32419 7.11237 9.32734C7.10888 9.33049 7.10539 9.33364 7.1019 9.3368C7.09841 9.33995 7.09491 9.3431 7.09142 9.34625C7.08793 9.34941 7.08444 9.35256 7.08095 9.35571C7.07746 9.35886 7.07397 9.36202 7.07048 9.36517C7.06699 9.36832 7.0635 9.37147 7.06001 9.37463C7.05652 9.37778 7.05303 9.38093 7.04954 9.38408C7.04605 9.38723 7.04256 9.39039 7.03907 9.39354C7.03558 9.39669 7.03209 9.39984 7.0286 9.40299C7.02511 9.40615 7.02162 9.4093 7.01813 9.41245C7.01464 9.4156 7.01115 9.41875 7.00766 9.4219C7.00417 9.42505 7.00068 9.42821 6.99719 9.43136C6.9937 9.43451 6.99021 9.43766 6.98672 9.44081C6.98323 9.44396 6.97974 9.44711 6.97625 9.45026C6.97276 9.45341 6.96928 9.45656 6.96579 9.45971C6.9623 9.46287 6.95881 9.46602 6.95532 9.46917C6.95183 9.47232 6.94834 9.47547 6.94486 9.47862C6.94137 9.48177 6.93788 9.48492 6.93439 9.48807C6.9309 9.49122 6.92742 9.49437 6.92393 9.49752C6.92044 9.50066 6.91695 9.50381 6.91347 9.50696C6.90998 9.51011 6.90649 9.51326 6.903 9.51641C6.89952 9.51956 6.89603 9.52271 6.89254 9.52586C6.88906 9.52901 6.88557 9.53216 6.88208 9.5353C6.8786 9.53845 6.87511 9.5416 6.87163 9.54475C6.86814 9.5479 6.86465 9.55104 6.86117 9.55419C6.85768 9.55734 6.8542 9.56049 6.85071 9.56364C6.84723 9.56678 6.84374 9.56993 6.84026 9.57308C6.83677 9.57622 6.83329 9.57937 6.8298 9.58252C6.82632 9.58566 6.82283 9.58881 6.81935 9.59196C6.81587 9.5951 6.81238 9.59825 6.8089 9.6014C6.80541 9.60454 6.80193 9.60769 6.79845 9.61083C6.79496 9.61398 6.79148 9.61713 6.788 9.62027C6.78452 9.62342 6.78103 9.62656 6.77755 9.62971C6.77407 9.63285 6.77059 9.63599 6.7671 9.63914C6.76362 9.64228 6.76014 9.64543 6.75666 9.64857C6.75318 9.65172 6.7497 9.65486 6.74621 9.658C6.74273 9.66115 6.73925 9.66429 6.73577 9.66743C6.73229 9.67058 6.72881 9.67372 6.72533 9.67686C6.72185 9.68001 6.71837 9.68315 6.71489 9.68629C6.71141 9.68943 6.70793 9.69257 6.70445 9.69572C6.70098 9.69886 6.6975 9.702 6.69402 9.70514C6.69054 9.70828 6.68706 9.71142 6.68358 9.71456C6.68011 9.7177 6.67663 9.72085 6.67315 9.72399C6.66967 9.72713 6.6662 9.73027 6.66272 9.73341C6.65924 9.73655 6.65577 9.73968 6.65229 9.74282C6.64881 9.74596 6.64534 9.7491 6.64186 9.75224C6.63839 9.75538 6.63491 9.75852 6.63144 9.76166C6.62796 9.76479 6.62449 9.76793 6.62101 9.77107C6.61754 9.77421 6.61406 9.77734 6.61059 9.78048C6.60712 9.78362 6.60364 9.78676 6.60017 9.78989C6.5967 9.79303 6.59322 9.79616 6.58975 9.7993C6.58628 9.80244 6.58281 9.80557 6.57934 9.80871C6.57586 9.81184 6.57239 9.81498 6.56892 9.81811C6.56545 9.82125 6.56198 9.82438 6.55851 9.82752C6.55504 9.83065 6.55157 9.83378 6.5481 9.83692C6.54463 9.84005 6.54116 9.84318 6.53769 9.84632C6.53422 9.84945 6.53075 9.85258 6.52728 9.85571C6.52382 9.85885 6.52035 9.86198 6.51688 9.86511C6.51341 9.86824 6.50995 9.87137 6.50648 9.8745C6.50301 9.87763 6.49955 9.88076 6.49608 9.88389C6.49261 9.88702 6.48915 9.89015 6.48568 9.89328C6.48222 9.89641 6.47875 9.89954 6.47529 9.90267C6.47182 9.9058 6.46836 9.90893 6.46489 9.91206C6.46143 9.91518 6.45797 9.91831 6.4545 9.92144C6.45104 9.92457 6.44758 9.92769 6.44412 9.93082C6.44065 9.93395 6.43719 9.93707 6.43373 9.9402C6.43027 9.94333 6.42681 9.94645 6.42335 9.94958C6.41989 9.9527 6.41643 9.95583 6.41297 9.95895C6.40951 9.96207 6.40605 9.9652 6.40259 9.96832C6.39913 9.97145 6.39567 9.97457 6.39221 9.97769C6.38876 9.98081 6.3853 9.98394 6.38184 9.98706C6.37838 9.99018 6.37493 9.9933 6.37147 9.99642C6.36802 9.99955 6.36456 10.0027 6.3611 10.0058C6.35765 10.0089 6.35419 10.012 6.35074 10.0151C6.34728 10.0183 6.34383 10.0214 6.34038 10.0245C6.33692 10.0276 6.33347 10.0307 6.33002 10.0339C6.32656 10.037 6.32311 10.0401 6.31966 10.0432C6.31621 10.0463 6.31276 10.0494 6.30931 10.0526C6.30586 10.0557 6.30241 10.0588 6.29896 10.0619C6.29551 10.065 6.29206 10.0681 6.28861 10.0713C6.28516 10.0744 6.28171 10.0775 6.27826 10.0806C6.27482 10.0837 6.27137 10.0868 6.26792 10.0899C6.26448 10.093 6.26103 10.0962 6.25758 10.0993C6.25414 10.1024 6.25069 10.1055 6.24725 10.1086C6.2438 10.1117 6.24036 10.1148 6.23691 10.1179C6.23347 10.121 6.23003 10.1242 6.22659 10.1273C6.22314 10.1304 6.2197 10.1335 6.21626 10.1366C6.21282 10.1397 6.20938 10.1428 6.20594 10.1459C6.20249 10.149 6.19906 10.1521 6.19562 10.1552C6.19218 10.1583 6.18874 10.1614 6.1853 10.1646C6.18186 10.1677 6.17842 10.1708 6.17499 10.1739C6.17155 10.177 6.16811 10.1801 6.16467 10.1832C6.16124 10.1863 6.1578 10.1894 6.15437 10.1925C6.15093 10.1956 6.1475 10.1987 6.14406 10.2018C6.14063 10.2049 6.1372 10.208 6.13376 10.2111C6.13033 10.2142 6.1269 10.2173 6.12347 10.2204C6.12004 10.2235 6.1166 10.2266 6.11317 10.2297C6.10974 10.2328 6.10631 10.2359 6.10288 10.239C6.09946 10.2421 6.09603 10.2452 6.0926 10.2483C6.08917 10.2514 6.08574 10.2545 6.08232 10.2576C6.07889 10.2606 6.07546 10.2637 6.07204 10.2668C6.06861 10.2699 6.06519 10.273 6.06176 10.2761C6.05834 10.2792 6.05491 10.2823 6.05149 10.2854C6.04807 10.2885 6.04464 10.2916 6.04122 10.2947C6.0378 10.2978 6.03438 10.3008 6.03096 10.3039L6.36607 10.675C6.36949 10.6719 6.37291 10.6688 6.37633 10.6657C6.37976 10.6627 6.38318 10.6596 6.3866 10.6565C6.39003 10.6534 6.39345 10.6503 6.39687 10.6472C6.4003 10.6441 6.40372 10.641 6.40715 10.6379C6.41057 10.6348 6.414 10.6317 6.41743 10.6286C6.42085 10.6255 6.42428 10.6224 6.42771 10.6193C6.43114 10.6163 6.43457 10.6132 6.438 10.6101C6.44143 10.607 6.44486 10.6039 6.44829 10.6008C6.45172 10.5977 6.45515 10.5946 6.45858 10.5915C6.46201 10.5884 6.46544 10.5853 6.46888 10.5822C6.47231 10.5791 6.47574 10.576 6.47918 10.5729C6.48261 10.5698 6.48604 10.5667 6.48948 10.5636C6.49291 10.5605 6.49635 10.5574 6.49979 10.5543C6.50322 10.5512 6.50666 10.548 6.5101 10.5449C6.51353 10.5418 6.51697 10.5387 6.52041 10.5356C6.52385 10.5325 6.52729 10.5294 6.53073 10.5263C6.53417 10.5232 6.53761 10.5201 6.54105 10.517C6.54449 10.5139 6.54793 10.5108 6.55137 10.5077C6.55481 10.5046 6.55825 10.5015 6.5617 10.4983C6.56514 10.4952 6.56858 10.4921 6.57203 10.489C6.57547 10.4859 6.57891 10.4828 6.58236 10.4797C6.5858 10.4766 6.58925 10.4735 6.5927 10.4704C6.59614 10.4672 6.59959 10.4641 6.60303 10.461C6.60648 10.4579 6.60993 10.4548 6.61338 10.4517C6.61682 10.4486 6.62027 10.4454 6.62372 10.4423C6.62717 10.4392 6.63062 10.4361 6.63407 10.433C6.63752 10.4299 6.64097 10.4268 6.64442 10.4236C6.64787 10.4205 6.65132 10.4174 6.65477 10.4143C6.65822 10.4112 6.66168 10.4081 6.66513 10.4049C6.66858 10.4018 6.67204 10.3987 6.67549 10.3956C6.67894 10.3925 6.6824 10.3893 6.68585 10.3862C6.68931 10.3831 6.69276 10.38 6.69622 10.3769C6.69967 10.3737 6.70313 10.3706 6.70658 10.3675C6.71004 10.3644 6.7135 10.3613 6.71695 10.3581C6.72041 10.355 6.72387 10.3519 6.72733 10.3488C6.73078 10.3456 6.73424 10.3425 6.7377 10.3394C6.74116 10.3363 6.74462 10.3332 6.74808 10.33C6.75154 10.3269 6.755 10.3238 6.75846 10.3207C6.76192 10.3175 6.76538 10.3144 6.76884 10.3113C6.7723 10.3082 6.77577 10.305 6.77923 10.3019C6.78269 10.2988 6.78615 10.2956 6.78962 10.2925C6.79308 10.2894 6.79654 10.2863 6.80001 10.2831C6.80347 10.28 6.80693 10.2769 6.8104 10.2738C6.81386 10.2706 6.81733 10.2675 6.82079 10.2644C6.82426 10.2612 6.82772 10.2581 6.83119 10.255C6.83466 10.2518 6.83812 10.2487 6.84159 10.2456C6.84506 10.2425 6.84852 10.2393 6.85199 10.2362C6.85546 10.2331 6.85893 10.2299 6.8624 10.2268C6.86586 10.2237 6.86933 10.2205 6.8728 10.2174C6.87627 10.2143 6.87974 10.2111 6.88321 10.208C6.88668 10.2049 6.89015 10.2017 6.89362 10.1986C6.89709 10.1955 6.90056 10.1923 6.90403 10.1892C6.9075 10.1861 6.91098 10.1829 6.91445 10.1798C6.91792 10.1767 6.92139 10.1735 6.92486 10.1704C6.92834 10.1672 6.93181 10.1641 6.93528 10.161C6.93876 10.1578 6.94223 10.1547 6.9457 10.1516C6.94918 10.1484 6.95265 10.1453 6.95612 10.1421C6.9596 10.139 6.96307 10.1359 6.96655 10.1327C6.97002 10.1296 6.9735 10.1265 6.97697 10.1233C6.98045 10.1202 6.98393 10.117 6.9874 10.1139C6.99088 10.1108 6.99436 10.1076 6.99783 10.1045C7.00131 10.1013 7.00479 10.0982 7.00826 10.0951C7.01174 10.0919 7.01522 10.0888 7.0187 10.0856C7.02217 10.0825 7.02565 10.0794 7.02913 10.0762C7.03261 10.0731 7.03609 10.0699 7.03957 10.0668C7.04305 10.0637 7.04652 10.0605 7.05 10.0574C7.05348 10.0542 7.05696 10.0511 7.06044 10.0479C7.06392 10.0448 7.0674 10.0417 7.07088 10.0385C7.07436 10.0354 7.07785 10.0322 7.08133 10.0291C7.08481 10.0259 7.08829 10.0228 7.09177 10.0197C7.09525 10.0165 7.09873 10.0134 7.10222 10.0102C7.1057 10.0071 7.10918 10.0039 7.11266 10.0008C7.11614 9.99764 7.11963 9.9945 7.12311 9.99135C7.12659 9.9882 7.13008 9.98506 7.13356 9.98191C7.13704 9.97877 7.14053 9.97562 7.14401 9.97248C7.14749 9.96933 7.15098 9.96618 7.15446 9.96304C7.15795 9.95989 7.16143 9.95674 7.16491 9.9536C7.1684 9.95045 7.17188 9.9473 7.17537 9.94416C7.17885 9.94101 7.18234 9.93786 7.18582 9.93471C7.18931 9.93157 7.19279 9.92842 7.19628 9.92527C7.19977 9.92212 7.20325 9.91898 7.20674 9.91583C7.21022 9.91268 7.21371 9.90953 7.2172 9.90638C7.22068 9.90323 7.22417 9.90009 7.22766 9.89694C7.23114 9.89379 7.23463 9.89064 7.23812 9.88749C7.2416 9.88434 7.24509 9.88119 7.24858 9.87804C7.25206 9.87489 7.25555 9.87174 7.25904 9.86859C7.26253 9.86545 7.26602 9.8623 7.2695 9.85915C7.27299 9.856 7.27648 9.85285 7.27997 9.8497C7.28346 9.84655 7.28694 9.8434 7.29043 9.84025C7.29392 9.8371 7.29741 9.83394 7.3009 9.83079C7.30439 9.82764 7.30788 9.82449 7.31136 9.82134C7.31485 9.81819 7.31834 9.81504 7.32183 9.81189C7.32532 9.80874 7.32881 9.80559 7.3323 9.80244C7.33579 9.79929 7.33928 9.79613 7.34277 9.79298C7.34626 9.78983 7.34975 9.78668 7.35324 9.78353C7.35673 9.78038 7.36022 9.77722 7.36371 9.77407C7.3672 9.77092 7.37069 9.76777 7.37418 9.76462C7.37767 9.76147 7.38116 9.75831 7.38465 9.75516C7.38814 9.75201 7.39163 9.74886 7.39512 9.74571C7.39861 9.74255 7.4021 9.7394 7.40559 9.73625C7.40908 9.7331 7.41257 9.72994 7.41606 9.72679C7.41955 9.72364 7.42304 9.72049 7.42654 9.71733C7.43003 9.71418 7.43352 9.71103 7.43701 9.70788C7.4405 9.70472 7.44399 9.70157 7.44748 9.69842C7.45097 9.69527 7.45446 9.69211 7.45795 9.68896C7.46145 9.68581 7.46494 9.68266 7.46843 9.6795C7.47192 9.67635 7.47541 9.6732 7.4789 9.67004C7.48239 9.66689 7.48588 9.66374 7.48938 9.66058C7.49287 9.65743 7.49636 9.65428 7.49985 9.65113C7.50334 9.64797 7.50683 9.64482 7.51032 9.64167C7.51382 9.63851 7.51731 9.63536 7.5208 9.63221C7.52429 9.62906 7.52778 9.6259 7.53127 9.62275C7.53476 9.6196 7.53826 9.61644 7.54175 9.61329C7.54524 9.61014 7.54873 9.60698 7.55222 9.60383C7.55571 9.60068 7.5592 9.59752 7.5627 9.59437C7.56619 9.59122 7.56968 9.58807 7.57317 9.58491C7.57666 9.58176 7.58015 9.57861 7.58364 9.57545C7.58713 9.5723 7.59063 9.56915 7.59412 9.566C7.59761 9.56284 7.6011 9.55969 7.60459 9.55654C7.60808 9.55338 7.61157 9.55023 7.61506 9.54708C7.61856 9.54393 7.62205 9.54077 7.62554 9.53762C7.62903 9.53447 7.63252 9.53132 7.63601 9.52816C7.6395 9.52501 7.64299 9.52186 7.64648 9.51871C7.64997 9.51555 7.65346 9.5124 7.65696 9.50925C7.66045 9.5061 7.66394 9.50294 7.66743 9.49979C7.67092 9.49664 7.67441 9.49349 7.6779 9.49034C7.68139 9.48718 7.68488 9.48403 7.68837 9.48088C7.69186 9.47773 7.69535 9.47458 7.69884 9.47142C7.70233 9.46827 7.70582 9.46512 7.70931 9.46197C7.7128 9.45882 7.71629 9.45567 7.71978 9.45252C7.72327 9.44936 7.72676 9.44621 7.73025 9.44306C7.73374 9.43991 7.73723 9.43676 7.74071 9.43361C7.7442 9.43046 7.74769 9.42731 7.75118 9.42416C7.75467 9.421 7.75816 9.41785 7.76165 9.4147C7.76514 9.41155 7.76863 9.4084 7.77211 9.40525C7.7756 9.4021 7.77909 9.39895 7.78258 9.3958C7.78607 9.39265 7.78956 9.3895 7.79304 9.38635C7.79653 9.3832 7.80002 9.38005 7.80351 9.3769C7.80699 9.37375 7.81048 9.3706 7.81397 9.36745C7.81746 9.3643 7.82094 9.36116 7.82443 9.35801C7.82792 9.35486 7.8314 9.35171 7.83489 9.34856C7.83838 9.34541 7.84186 9.34226 7.84535 9.33911C7.84884 9.33597 7.85232 9.33282 7.85581 9.32967C7.8593 9.32652 7.86278 9.32337 7.86627 9.32022C7.86975 9.31708 7.87324 9.31393 7.87672 9.31078C7.88021 9.30763 7.88369 9.30449 7.88718 9.30134C7.89066 9.29819 7.89415 9.29505 7.89763 9.2919C7.90112 9.28875 7.9046 9.28561 7.90809 9.28246C7.91157 9.27931 7.91505 9.27617 7.91854 9.27302C7.92202 9.26987 7.92551 9.26673 7.92899 9.26358C7.93247 9.26044 7.93596 9.25729 7.93944 9.25415C7.94292 9.251 7.9464 9.24786 7.94989 9.24471C7.95337 9.24157 7.95685 9.23842 7.96033 9.23528C7.96382 9.23213 7.9673 9.22899 7.97078 9.22584C7.97426 9.2227 7.97774 9.21956 7.98122 9.21641C7.9847 9.21327 7.98818 9.21013 7.99166 9.20698C7.99515 9.20384 7.99863 9.2007 8.00211 9.19755C8.00559 9.19441 8.00907 9.19127 8.01254 9.18813C8.01602 9.18498 8.0195 9.18184 8.02298 9.1787C8.02646 9.17556 8.02994 9.17242 8.03342 9.16927C8.0369 9.16613 8.04038 9.16299 8.04385 9.15985C8.04733 9.15671 8.05081 9.15357 8.05429 9.15043C8.05776 9.14729 8.06124 9.14415 8.06472 9.14101C8.0682 9.13787 8.07167 9.13473 8.07515 9.13159C8.07862 9.12845 8.0821 9.12531 8.08558 9.12217C8.08905 9.11903 8.09253 9.1159 8.096 9.11276C8.09948 9.10962 8.10295 9.10648 8.10643 9.10334C8.1099 9.10021 8.11337 9.09707 8.11685 9.09393C8.12032 9.09079 8.1238 9.08766 8.12727 9.08452C8.13074 9.08138 8.13421 9.07825 8.13769 9.07511C8.14116 9.07198 8.14463 9.06884 8.1481 9.06571C8.15158 9.06257 8.15505 9.05944 8.15852 9.0563C8.16199 9.05317 8.16546 9.05003 8.16893 9.0469C8.1724 9.04376 8.17587 9.04063 8.17934 9.0375C8.18281 9.03436 8.18628 9.03123 8.18975 9.0281C8.19322 9.02496 8.19669 9.02183 8.20016 9.0187C8.20362 9.01557 8.20709 9.01243 8.21056 9.0093C8.21403 9.00617 8.2175 9.00304 8.22096 8.99991C8.22443 8.99678 8.2279 8.99365 8.23136 8.99052C8.23483 8.98739 8.23829 8.98426 8.24176 8.98113C8.24523 8.978 8.24869 8.97487 8.25215 8.97174C8.25562 8.96861 8.25908 8.96548 8.26255 8.96235C8.26601 8.95923 8.26948 8.9561 8.27294 8.95297C8.2764 8.94984 8.27986 8.94672 8.28333 8.94359C8.28679 8.94046 8.29025 8.93734 8.29371 8.93421C8.29717 8.93109 8.30063 8.92796 8.3041 8.92483C8.30756 8.92171 8.31102 8.91858 8.31448 8.91546C8.31794 8.91234 8.32139 8.90921 8.32485 8.90609C8.32831 8.90296 8.33177 8.89984 8.33523 8.89672C8.33869 8.89359 8.34215 8.89047 8.3456 8.88735C8.34906 8.88423 8.35252 8.88111 8.35597 8.87798C8.35943 8.87486 8.36289 8.87174 8.36634 8.86862C8.3698 8.8655 8.37325 8.86238 8.37671 8.85926C8.38016 8.85614 8.38361 8.85302 8.38707 8.8499C8.39052 8.84679 8.39397 8.84367 8.39743 8.84055C8.40088 8.83743 8.40433 8.83431 8.40778 8.8312C8.41124 8.82808 8.41469 8.82496 8.41814 8.82185C8.42159 8.81873 8.42504 8.81561 8.42849 8.8125C8.43194 8.80938 8.43539 8.80627 8.43884 8.80315C8.44229 8.80004 8.44573 8.79692 8.44918 8.79381C8.45263 8.7907 8.45608 8.78758 8.45952 8.78447C8.46297 8.78136 8.46642 8.77825 8.46986 8.77513C8.47331 8.77202 8.47675 8.76891 8.4802 8.7658C8.48364 8.76269 8.48709 8.75958 8.49053 8.75647C8.49398 8.75336 8.49742 8.75025 8.50086 8.74714C8.50431 8.74403 8.50775 8.74092 8.51119 8.73781C8.51463 8.73471 8.51807 8.7316 8.52151 8.72849C8.52495 8.72538 8.52839 8.72228 8.53183 8.71917C8.53527 8.71606 8.53871 8.71296 8.54215 8.70985C8.54559 8.70675 8.54903 8.70364 8.55246 8.70054C8.5559 8.69743 8.55934 8.69433 8.56278 8.69123C8.56621 8.68812 8.56965 8.68502 8.57308 8.68192C8.57652 8.67882 8.57995 8.67572 8.58339 8.67261C8.58682 8.66951 8.59025 8.66641 8.59369 8.66331C8.59712 8.66021 8.60055 8.65711 8.60398 8.65401C8.60742 8.65091 8.61085 8.64782 8.61428 8.64472C8.61771 8.64162 8.62114 8.63852 8.62457 8.63542C8.628 8.63233 8.63143 8.62923 8.63485 8.62614C8.63828 8.62304 8.64171 8.61994 8.64514 8.61685C8.64856 8.61375 8.65199 8.61066 8.65542 8.60757C8.65884 8.60447 8.66227 8.60138 8.66569 8.59829C8.66912 8.59519 8.67254 8.5921 8.67596 8.58901C8.67939 8.58592 8.68281 8.58283 8.68623 8.57974C8.68965 8.57665 8.69308 8.57356 8.6965 8.57047C8.69992 8.56738 8.70334 8.56429 8.70676 8.5612C8.71018 8.55811 8.7136 8.55503 8.71701 8.55194C8.72043 8.54885 8.72385 8.54576 8.72727 8.54268C8.73068 8.53959 8.7341 8.53651 8.73752 8.53342C8.74093 8.53034 8.74435 8.52725 8.74776 8.52417C8.75118 8.52109 8.75459 8.518 8.758 8.51492C8.76142 8.51184 8.76483 8.50876 8.76824 8.50568C8.77165 8.5026 8.77506 8.49952 8.77847 8.49644C8.78188 8.49336 8.78529 8.49028 8.7887 8.4872C8.79211 8.48412 8.79552 8.48104 8.79893 8.47796C8.80234 8.47489 8.80574 8.47181 8.80915 8.46873C8.81256 8.46566 8.81596 8.46258 8.81937 8.45951C8.82277 8.45643 8.82618 8.45336 8.82958 8.45028C8.83298 8.44721 8.83639 8.44414 8.83979 8.44107C8.84319 8.43799 8.84659 8.43492 8.84999 8.43185C8.85339 8.42878 8.85679 8.42571 8.86019 8.42264C8.86359 8.41957 8.86699 8.4165 8.87039 8.41343C8.87379 8.41036 8.87718 8.40729 8.88058 8.40423C8.88398 8.40116 8.88737 8.39809 8.89077 8.39503C8.89416 8.39196 8.89755 8.3889 8.90095 8.38583C8.90434 8.38277 8.90773 8.3797 8.91113 8.37664C8.91452 8.37358 8.91791 8.37052 8.9213 8.36745C8.92469 8.36439 8.92808 8.36133 8.93147 8.35827C8.93486 8.35521 8.93825 8.35215 8.94163 8.34909C8.94502 8.34603 8.94841 8.34297 8.95179 8.33992C8.95518 8.33686 8.95856 8.3338 8.96195 8.33075C8.96533 8.32769 8.96872 8.32463 8.9721 8.32158C8.97548 8.31852 8.97886 8.31547 8.98224 8.31242C8.98563 8.30936 8.98901 8.30631 8.99239 8.30326C8.99577 8.30021 8.99914 8.29715 9.00252 8.2941C9.0059 8.29105 9.00928 8.288 9.01265 8.28495C9.01603 8.28191 9.01941 8.27886 9.02278 8.27581C9.02616 8.27276 9.02953 8.26971 9.0329 8.26667C9.03628 8.26362 9.03965 8.26058 9.04302 8.25753C9.04639 8.25449 9.04976 8.25144 9.05313 8.2484C9.0565 8.24536 9.05987 8.24231 9.06324 8.23927C9.06661 8.23623 9.06997 8.23319 9.07334 8.23015C9.07671 8.22711 9.08007 8.22407 9.08344 8.22103C9.0868 8.21799 9.09017 8.21495 9.09353 8.21192C9.09689 8.20888 9.10026 8.20584 9.10362 8.20281C9.10698 8.19977 9.11034 8.19674 9.1137 8.1937C9.11706 8.19067 9.12042 8.18764 9.12378 8.1846C9.12713 8.18157 9.13049 8.17854 9.13385 8.17551C9.1372 8.17248 9.14056 8.16945 9.14391 8.16642C9.14727 8.16339 9.15062 8.16036 9.15397 8.15733C9.15733 8.1543 9.16068 8.15128 9.16403 8.14825C9.16738 8.14523 9.17073 8.1422 9.17408 8.13918C9.17743 8.13615 9.18078 8.13313 9.18412 8.1301C9.18747 8.12708 9.19082 8.12406 9.19416 8.12104C9.19751 8.11802 9.20085 8.115 9.2042 8.11198C9.20754 8.10896 9.21088 8.10594 9.21423 8.10292C9.21757 8.0999 9.22091 8.09688 9.22425 8.09387C9.22759 8.09085 9.23093 8.08784 9.23427 8.08482C9.23761 8.08181 9.24094 8.07879 9.24428 8.07578C9.24762 8.07277 9.25095 8.06975 9.25429 8.06674C9.25762 8.06373 9.26095 8.06072 9.26429 8.05771C9.26762 8.0547 9.27095 8.05169 9.27428 8.04869C9.27761 8.04568 9.28094 8.04267 9.28427 8.03966C9.2876 8.03666 9.29093 8.03365 9.29425 8.03065C9.29758 8.02764 9.30091 8.02464 9.30423 8.02164C9.30756 8.01864 9.31088 8.01563 9.3142 8.01263C9.31753 8.00963 9.32085 8.00663 9.32417 8.00363C9.32749 8.00063 9.33081 7.99763 9.33413 7.99464C9.33745 7.99164 9.34077 7.98864 9.34408 7.98565C9.3474 7.98265 9.35072 7.97966 9.35403 7.97666C9.35735 7.97367 9.36066 7.97068 9.36398 7.96769C9.36729 7.96469 9.3706 7.9617 9.37391 7.95871C9.37722 7.95572 9.38053 7.95273 9.38384 7.94974C9.38715 7.94676 9.39046 7.94377 9.39377 7.94078C9.39707 7.93779 9.40038 7.93481 9.40369 7.93182C9.40699 7.92884 9.41029 7.92586 9.4136 7.92287C9.4169 7.91989 9.4202 7.91691 9.4235 7.91393C9.4268 7.91095 9.4301 7.90797 9.4334 7.90499C9.4367 7.90201 9.44 7.89903 9.4433 7.89605C9.44659 7.89308 9.44989 7.8901 9.45318 7.88712C9.45648 7.88415 9.45977 7.88117 9.46306 7.8782C9.46636 7.87523 9.46965 7.87225 9.47294 7.86928C9.47623 7.86631 9.47952 7.86334 9.48281 7.86037C9.4861 7.8574 9.48938 7.85443 9.49267 7.85147C9.49595 7.8485 9.49924 7.84553 9.50252 7.84257C9.50581 7.8396 9.50909 7.83664 9.51237 7.83367C9.51565 7.83071 9.51894 7.82775 9.52222 7.82478C9.52549 7.82182 9.52877 7.81886 9.53205 7.8159C9.53533 7.81294 9.5386 7.80998 9.54188 7.80702C9.54516 7.80407 9.54843 7.80111 9.5517 7.79815C9.55498 7.7952 9.55825 7.79224 9.56152 7.78929C9.56479 7.78634 9.56806 7.78338 9.57133 7.78043C9.5746 7.77748 9.57786 7.77453 9.58113 7.77158C9.5844 7.76863 9.58766 7.76568 9.59093 7.76273C9.59419 7.75979 9.59745 7.75684 9.60071 7.75389C9.60398 7.75095 9.60724 7.748 9.6105 7.74506C9.61376 7.74212 9.61701 7.73917 9.62027 7.73623C9.62353 7.73329 9.62679 7.73035 9.63004 7.72741C9.63329 7.72447 9.63655 7.72153 9.6398 7.71859C9.64305 7.71566 9.64631 7.71272 9.64956 7.70979C9.65281 7.70685 9.65606 7.70392 9.6593 7.70098C9.66255 7.69805 9.6658 7.69512 9.66904 7.69219C9.67229 7.68926 9.67553 7.68633 9.67878 7.6834C9.68202 7.68047 9.68526 7.67754 9.6885 7.67461C9.69174 7.67169 9.69498 7.66876 9.69822 7.66584C9.70146 7.66291 9.7047 7.65999 9.70793 7.65707C9.71117 7.65414 9.71441 7.65122 9.71764 7.6483C9.72087 7.64538 9.72411 7.64246 9.72734 7.63954C9.73057 7.63663 9.7338 7.63371 9.73703 7.63079C9.74026 7.62788 9.74348 7.62496 9.74671 7.62205C9.74994 7.61913 9.75316 7.61622 9.75639 7.61331C9.75961 7.6104 9.76283 7.60749 9.76605 7.60458C9.76928 7.60167 9.7725 7.59876 9.77572 7.59585C9.77893 7.59295 9.78215 7.59004 9.78537 7.58714C9.78859 7.58423 9.7918 7.58133 9.79501 7.57843C9.79823 7.57552 9.80144 7.57262 9.80465 7.56972C9.80786 7.56682 9.81108 7.56392 9.81428 7.56102C9.81749 7.55813 9.8207 7.55523 9.82391 7.55233C9.82711 7.54944 9.83032 7.54654 9.83352 7.54365C9.83673 7.54076 9.83993 7.53786 9.84313 7.53497C9.84633 7.53208 9.84953 7.52919 9.85273 7.5263C9.85593 7.52341 9.85913 7.52053 9.86233 7.51764C9.86552 7.51475 9.86872 7.51187 9.87191 7.50898C9.8751 7.5061 9.8783 7.50322 9.88149 7.50033C9.88468 7.49745 9.88787 7.49457 9.89106 7.49169C9.89425 7.48881 9.89743 7.48593 9.90062 7.48306C9.9038 7.48018 9.90699 7.4773 9.91017 7.47443C9.91336 7.47155 9.91654 7.46868 9.91972 7.46581C9.9229 7.46294 9.92608 7.46007 9.92926 7.4572C9.93243 7.45433 9.93561 7.45146 9.93879 7.44859C9.94196 7.44572 9.94514 7.44286 9.94831 7.43999C9.95148 7.43712 9.95465 7.43426 9.95782 7.4314C9.96099 7.42854 9.96416 7.42567 9.96733 7.42281C9.9705 7.41995 9.97366 7.41709 9.97683 7.41424C9.97999 7.41138 9.98315 7.40852 9.98632 7.40567C9.98948 7.40281 9.99264 7.39996 9.9958 7.3971C9.99896 7.39425 10.0021 7.3914 10.0053 7.38855C10.0084 7.3857 10.0116 7.38285 10.0147 7.38C10.0179 7.37715 10.021 7.37431 10.0242 7.37146C10.0273 7.36862 10.0305 7.36577 10.0336 7.36293C10.0368 7.36009 10.0399 7.35724 10.0431 7.3544C10.0462 7.35156 10.0494 7.34872 10.0525 7.34589C10.0557 7.34305 10.0588 7.34021 10.0619 7.33738C10.0651 7.33454 10.0682 7.33171 10.0714 7.32887C10.0745 7.32604 10.0776 7.32321 10.0808 7.32038C10.0839 7.31755 10.087 7.31472 10.0902 7.31189C10.0933 7.30906 10.0964 7.30624 10.0995 7.30341C10.1027 7.30059 10.1058 7.29776 10.1089 7.29494C10.1121 7.29212 10.1152 7.2893 10.1183 7.28648C10.1214 7.28366 10.1245 7.28084 10.1277 7.27802C10.1308 7.2752 10.1339 7.27239 10.137 7.26957C10.1401 7.26676 10.1432 7.26395 10.1464 7.26113C10.1495 7.25832 10.1526 7.25551 10.1557 7.2527C10.1588 7.24989 10.1619 7.24708 10.165 7.24428C10.1681 7.24147 10.1712 7.23866 10.1743 7.23586C10.1775 7.23306 10.1806 7.23025 10.1837 7.22745C10.1868 7.22465 10.1899 7.22185 10.193 7.21905C10.1961 7.21625 10.1992 7.21345 10.2023 7.21066C10.2054 7.20786 10.2084 7.20507 10.2115 7.20227C10.2146 7.19948 10.2177 7.19669 10.2208 7.1939C10.2239 7.19111 10.227 7.18832 10.2301 7.18553C10.2332 7.18274 10.2363 7.17996 10.2393 7.17717C10.2424 7.17438 10.2455 7.1716 10.2486 7.16882C10.2517 7.16604 10.2547 7.16325 10.2578 7.16047C10.2609 7.1577 10.264 7.15492 10.2671 7.15214C10.2701 7.14936 10.2732 7.14659 10.2763 7.14381C10.2793 7.14104 10.2824 7.13827 10.2855 7.13549C10.2886 7.13272 10.2916 7.12995 10.2947 7.12718C10.2978 7.12442 10.3008 7.12165 10.3039 7.11888C10.3069 7.11612 10.31 7.11335 10.3131 7.11059C10.3161 7.10783 10.3192 7.10506 10.3222 7.1023C10.3253 7.09954 10.3284 7.09678 10.3314 7.09403C10.3345 7.09127 10.3375 7.08851 10.3406 7.08576C10.3436 7.08301 10.3467 7.08025 10.3497 7.0775C10.3528 7.07475 10.3558 7.072 10.3588 7.06925C10.3619 7.0665 10.3649 7.06375 10.368 7.06101C10.371 7.05826 10.374 7.05552 10.3771 7.05277C10.3801 7.05003 10.3832 7.04729 10.3862 7.04455C10.3892 7.04181 10.3923 7.03907 10.3953 7.03633C10.3983 7.03359 10.4014 7.03086 10.4044 7.02812C10.4074 7.02539 10.4104 7.02266 10.4135 7.01993C10.4165 7.01719 10.4195 7.01446 10.4225 7.01174C10.4255 7.00901 10.4286 7.00628 10.4316 7.00355C10.4346 7.00083 10.4376 6.99811 10.4406 6.99538C10.4437 6.99266 10.4467 6.98994 10.4497 6.98722C10.4527 6.9845 10.4557 6.98178 10.4587 6.97906C10.4617 6.97635 10.4647 6.97363 10.4677 6.97092C10.4707 6.96821 10.4737 6.96549 10.4767 6.96278C10.4797 6.96007 10.4827 6.95736 10.4857 6.95465C10.4887 6.95195 10.4917 6.94924 10.4947 6.94654C10.4977 6.94383 10.5007 6.94113 10.5037 6.93843C10.5067 6.93572 10.5097 6.93302 10.5127 6.93033C10.5157 6.92763 10.5187 6.92493 10.5216 6.92223C10.5246 6.91954 10.5276 6.91684 10.5306 6.91415C10.5336 6.91146 10.5365 6.90877 10.5395 6.90608C10.5425 6.90339 10.5455 6.9007 10.5485 6.89802C10.5514 6.89533 10.5544 6.89264 10.5574 6.88996C10.5603 6.88728 10.5633 6.8846 10.5663 6.88192C10.5692 6.87924 10.5722 6.87656 10.5752 6.87388C10.5781 6.8712 10.5811 6.86853 10.5841 6.86585C10.587 6.86318 10.59 6.86051 10.5929 6.85784C10.5959 6.85516 10.5989 6.8525 10.6018 6.84983C10.6048 6.84716 10.6077 6.84449 10.6107 6.84183C10.6136 6.83916 10.6166 6.8365 10.6195 6.83384C10.6225 6.83118 10.6254 6.82852 10.6284 6.82586C10.6313 6.8232 10.6342 6.82055 10.6372 6.81789C10.6401 6.81524 10.6431 6.81258 10.646 6.80993C10.6489 6.80728 10.6519 6.80463 10.6548 6.80198C10.6577 6.79933 10.6607 6.79668 10.6636 6.79404C10.6665 6.79139 10.6694 6.78875 10.6724 6.78611C10.6753 6.78346 10.6782 6.78082 10.6811 6.77818C10.6841 6.77555 10.687 6.77291 10.6899 6.77027C10.6928 6.76764 10.6957 6.765 10.6987 6.76237C10.7016 6.75974 10.7045 6.75711 10.7074 6.75448C10.7103 6.75185 10.7132 6.74922 10.7161 6.74659C10.719 6.74397 10.7219 6.74134 10.7248 6.73872C10.7278 6.7361 10.7307 6.73348 10.7336 6.73086C10.7365 6.72824 10.7394 6.72562 10.7422 6.723C10.7451 6.72039 10.748 6.71777 10.7509 6.71516C10.7538 6.71255 10.7567 6.70994 10.7596 6.70733C10.7625 6.70472 10.7654 6.70211 10.7683 6.6995C10.7712 6.6969 10.774 6.69429 10.7769 6.69169C10.7798 6.68909 10.7827 6.68649 10.7856 6.68389C10.7884 6.68129 10.7913 6.67869 10.7942 6.67609C10.7971 6.6735 10.7999 6.6709 10.8028 6.66831C10.8057 6.66572 10.8086 6.66312 10.8114 6.66054C10.8143 6.65795 10.8172 6.65536 10.82 6.65277C10.8229 6.65019 10.8257 6.6476 10.8286 6.64502C10.8315 6.64244 10.8343 6.63986 10.8372 6.63728C10.84 6.6347 10.8429 6.63212 10.8457 6.62954C10.8486 6.62697 10.8514 6.62439 10.8543 6.62182C10.8571 6.61925 10.86 6.61668 10.8628 6.61411C10.8657 6.61154 10.8685 6.60897 10.8714 6.60641C10.8742 6.60384 10.877 6.60128 10.8799 6.59872C10.8827 6.59616 10.8855 6.59359 10.8884 6.59104C10.8912 6.58848 10.894 6.58592 10.8969 6.58337C10.8997 6.58081 10.9025 6.57826 10.9054 6.57571C10.9082 6.57315 10.911 6.5706 10.9138 6.56806C10.9166 6.56551 10.9195 6.56296 10.9223 6.56042C10.9251 6.55787 10.9279 6.55533 10.9307 6.55279C10.9335 6.55025 10.9364 6.54771 10.9392 6.54517C10.942 6.54263 10.9448 6.5401 10.9476 6.53756C10.9504 6.53503 10.9532 6.5325 10.956 6.52997C10.9588 6.52744 10.9616 6.52491 10.9644 6.52238C10.9672 6.51986 10.97 6.51733 10.9728 6.51481C10.9756 6.51228 10.9784 6.50976 10.9812 6.50724C10.984 6.50472 10.9867 6.50221 10.9895 6.49969C10.9923 6.49717 10.9951 6.49466 10.9979 6.49215C11.0007 6.48963 11.0034 6.48712 11.0062 6.48461C11.009 6.48211 11.0118 6.4796 11.0146 6.47709C11.0173 6.47459 11.0201 6.47208 11.0229 6.46958C11.0256 6.46708 11.0284 6.46458 11.0312 6.46208C11.0339 6.45959 11.0367 6.45709 11.0395 6.4546C11.0422 6.4521 11.045 6.44961 11.0477 6.44712C11.0505 6.44463 11.0533 6.44214 11.056 6.43965C11.0588 6.43716 11.0615 6.43468 11.0643 6.4322C11.067 6.42971 11.0698 6.42723 11.0725 6.42475C11.0753 6.42227 11.078 6.41979 11.0807 6.41732C11.0835 6.41484 11.0862 6.41237 11.089 6.4099C11.0917 6.40742 11.0944 6.40495 11.0972 6.40249C11.0999 6.40002 11.1026 6.39755 11.1054 6.39509C11.1081 6.39262 11.1108 6.39016 11.1135 6.3877C11.1163 6.38524 11.119 6.38278 11.1217 6.38032C11.1244 6.37786 11.1272 6.37541 11.1299 6.37295C11.1326 6.3705 11.1353 6.36805 11.138 6.3656C11.1407 6.36315 11.1434 6.3607 11.1461 6.35826C11.1489 6.35581 11.1516 6.35337 11.1543 6.35093C11.157 6.34848 11.1597 6.34604 11.1624 6.3436C11.1651 6.34117 11.1678 6.33873 11.1705 6.3363C11.1732 6.33386 11.1759 6.33143 11.1785 6.329C11.1812 6.32657 11.1839 6.32414 11.1866 6.32171C11.1893 6.31929 11.192 6.31686 11.1947 6.31444C11.1974 6.31201 11.2 6.30959 11.2027 6.30717C11.2054 6.30476 11.2081 6.30234 11.2107 6.29992C11.2134 6.29751 11.2161 6.29509 11.2188 6.29268C11.2214 6.29027 11.2241 6.28786 11.2268 6.28546C11.2294 6.28305 11.2321 6.28064 11.2348 6.27824C11.2374 6.27584 11.2401 6.27343 11.2427 6.27103C11.2454 6.26863 11.248 6.26624 11.2507 6.26384C11.2533 6.26145 11.256 6.25905 11.2586 6.25666C11.2613 6.25427 11.2639 6.25188 11.2666 6.24949C11.2692 6.2471 11.2719 6.24472 11.2745 6.24233C11.2772 6.23995 11.2798 6.23757 11.2824 6.23519C11.2851 6.23281 11.2877 6.23043 11.2903 6.22805C11.293 6.22568 11.2956 6.2233 11.2982 6.22093C11.3008 6.21856 11.3035 6.21619 11.3061 6.21382C11.3087 6.21145 11.3113 6.20909 11.3139 6.20672C11.3166 6.20436 11.3192 6.202 11.3218 6.19964C11.3244 6.19728 11.327 6.19492 11.3296 6.19256C11.3322 6.19021 11.3348 6.18785 11.3374 6.1855C11.34 6.18315 11.3426 6.1808 11.3452 6.17845C11.3478 6.1761 11.3504 6.17376 11.353 6.17142C11.3556 6.16907 11.3582 6.16673 11.3608 6.16439L11.0257 5.79331Z" fill="#838383"/>
<path d="M1 3.58846V0.941406H4.52941" stroke="#838383" stroke-linecap="round" stroke-linejoin="round"/>
<path d="M12.4706 0.941406L16 0.941406L16 3.58847" stroke="#838383" stroke-linecap="round" stroke-linejoin="round"/>
<path d="M16 11.5292L16 15.0586L13.3529 15.0586" stroke="#838383" stroke-linecap="round" stroke-linejoin="round"/>
<path d="M4.52941 15.0586L1 15.0586L1 11.5292" stroke="#838383" stroke-linecap="round" stroke-linejoin="round"/>
</svg>
